<svg xmlns="http://www.w3.org/2000/svg" fill="none" viewBox="0 0 112 40" height="36" width="100.8"><path fill="currentColor" d="M23.318 13.943H1.667v-1.957h21.65V6.962H1.668V5.024h21.65V0H0v18.967000000000002h23.318zM23.318 33.027v-5.024H1.667v-1.938h21.65v-5.024H0v11.986h21.65v1.957H0v5.005h23.318v-6.962M107.768 29.435l-2.461.151q-.064-.315-.272-.568a1.44 1.44 0 0 0-.549-.41 1.9 1.9 0 0 0-.802-.158q-.624 0-1.054.265-.429.26-.429.694 0 .348.278.587.278.24.953.385l1.755.354q1.413.29 2.108.934.694.645.694 1.691 0 .954-.562 1.673-.555.72-1.527 1.123-.966.398-2.228.398-1.925 0-3.068-.802-1.135-.807-1.331-2.196l2.644-.139q.12.587.581.896.46.303 1.18.303.707 0 1.136-.271.436-.278.442-.713a.74.74 0 0 0-.309-.6q-.303-.24-.934-.366l-1.679-.334q-1.42-.285-2.115-.985-.687-.7-.687-1.786 0-.935.504-1.61.512-.675 1.433-1.041.928-.366 2.171-.366 1.837 0 2.891.776 1.06.777 1.237 2.115M83.491 36.365V26.67h2.563v1.71h.113a2.7 2.7 0 0 1 1.01-1.344q.707-.492 1.691-.492.997 0 1.698.499.701.492.934 1.338h.101q.297-.834 1.073-1.332.783-.505 1.85-.505 1.356 0 2.202.865.852.858.852 2.436v6.52h-2.682v-5.99q0-.807-.43-1.212-.428-.405-1.072-.404-.733 0-1.143.467-.41.462-.41 1.219v5.92h-2.606v-6.047q0-.713-.41-1.136-.405-.423-1.067-.423a1.5 1.5 0 0 0-.808.227 1.56 1.56 0 0 0-.562.625 2 2 0 0 0-.208.934v5.82zM77.287 36.554q-1.497 0-2.575-.606a4.15 4.15 0 0 1-1.654-1.73q-.58-1.123-.58-2.656 0-1.497.58-2.626a4.3 4.3 0 0 1 1.635-1.76q1.06-.633 2.486-.632.96 0 1.787.31.833.302 1.451.914.625.613.972 1.54.347.922.347 2.159v.738H73.55V30.54h5.655q0-.58-.252-1.029a1.8 1.8 0 0 0-.7-.7 2 2 0 0 0-1.03-.259q-.612 0-1.085.284a2 2 0 0 0-.732.751 2.1 2.1 0 0 0-.272 1.042v1.584q0 .72.266 1.243.27.525.763.808t1.168.284q.448 0 .82-.126.373-.126.638-.379.265-.252.404-.619l2.487.165a3.4 3.4 0 0 1-.777 1.565q-.58.663-1.502 1.035-.915.366-2.114.366M71.221 26.67v2.02h-5.838v-2.02zm-4.513-2.322h2.69v9.038q0 .373.113.58.113.202.315.285.21.081.48.082.189 0 .379-.032l.29-.057.423 2q-.202.064-.568.146a4.6 4.6 0 0 1-.89.107q-.972.039-1.704-.258a2.38 2.38 0 0 1-1.13-.922q-.405-.624-.397-1.578zM64.15 29.435l-2.46.151q-.064-.315-.272-.568a1.44 1.44 0 0 0-.55-.41 1.9 1.9 0 0 0-.8-.158q-.626 0-1.055.265-.429.26-.429.694 0 .348.278.587.278.24.953.385l1.754.354q1.415.29 2.108.934.695.645.695 1.691a2.64 2.64 0 0 1-.562 1.673q-.556.72-1.527 1.123-.966.398-2.228.398-1.925 0-3.068-.802-1.136-.807-1.331-2.196l2.644-.139q.12.587.58.896.462.303 1.181.303.707 0 1.136-.271.436-.278.442-.713a.74.74 0 0 0-.31-.6q-.302-.24-.934-.366l-1.678-.334q-1.42-.285-2.115-.985-.687-.7-.688-1.786 0-.935.505-1.61.512-.675 1.433-1.041.928-.366 2.171-.366 1.837 0 2.89.776 1.061.777 1.238 2.115M47.33 40q-.51 0-.959-.082a3.5 3.5 0 0 1-.732-.196l.606-2.007q.473.146.852.158.384.013.663-.177.283-.189.46-.644l.158-.41L44.9 26.67h2.828l2.007 7.12h.101l2.026-7.12h2.846l-3.767 10.742q-.272.782-.739 1.364a3 3 0 0 1-1.168.902Q48.328 40 47.33 40M41.087 27.156q-.075-.765-.65-1.187t-1.56-.422q-.668 0-1.129.189-.46.183-.707.511a1.23 1.23 0 0 0-.24.745q-.012.346.145.606.165.258.449.448.284.183.656.322.372.132.795.227l1.162.278a8 8 0 0 1 1.552.505q.707.315 1.225.776.517.46.801 1.085.291.626.297 1.433-.006 1.186-.606 2.058-.593.864-1.717 1.344-1.117.474-2.695.474-1.565 0-2.726-.48-1.155-.48-1.806-1.42-.644-.947-.675-2.342h2.645q.044.65.372 1.086.335.43.89.65.562.214 1.269.214.693 0 1.205-.202.517-.201.802-.561t.284-.827q0-.435-.259-.732-.252-.297-.745-.505a7.6 7.6 0 0 0-1.193-.379l-1.407-.353q-1.635-.398-2.582-1.244-.946-.845-.94-2.278-.006-1.174.625-2.051.638-.878 1.748-1.37t2.525-.492q1.44 0 2.512.492 1.08.492 1.679 1.37.6.877.618 2.032zM111.587 9.44l-2.462.151a1.3 1.3 0 0 0-.271-.568 1.44 1.44 0 0 0-.549-.41 1.9 1.9 0 0 0-.802-.158q-.624 0-1.054.265-.429.26-.429.694 0 .347.278.587t.953.385l1.754.354q1.415.29 2.109.934t.694 1.691q0 .953-.562 1.673-.555.72-1.527 1.123-.966.398-2.228.398-1.925 0-3.068-.802-1.136-.807-1.331-2.196l2.644-.139q.12.587.581.896.46.303 1.18.303.707 0 1.136-.271.436-.278.442-.713a.74.74 0 0 0-.309-.6q-.303-.24-.934-.366l-1.679-.335q-1.42-.284-2.115-.984-.688-.7-.688-1.786 0-.935.505-1.61.512-.675 1.433-1.041.927-.366 2.171-.366 1.837 0 2.891.776 1.06.776 1.237 2.115M101.607 9.44l-2.462.151q-.063-.316-.271-.568a1.44 1.44 0 0 0-.55-.41 1.9 1.9 0 0 0-.8-.158q-.627 0-1.055.265-.43.26-.43.694 0 .347.279.587.277.24.953.385l1.754.354q1.414.29 2.108.934t.695 1.691q0 .953-.562 1.673-.556.72-1.528 1.123-.965.398-2.228.398-1.924 0-3.067-.802-1.136-.807-1.332-2.196l2.645-.139q.12.587.58.896.462.303 1.18.303.707 0 1.137-.271.436-.278.442-.713a.74.74 0 0 0-.31-.6q-.303-.24-.934-.366l-1.679-.335q-1.42-.284-2.114-.984-.688-.7-.688-1.786 0-.935.505-1.61.51-.675 1.433-1.041.927-.366 2.17-.366 1.837 0 2.892.776 1.06.776 1.237 2.115M87.336 16.559q-1.495 0-2.575-.606a4.15 4.15 0 0 1-1.653-1.73q-.582-1.122-.581-2.657 0-1.495.58-2.625a4.3 4.3 0 0 1 1.635-1.761q1.06-.63 2.487-.631.96 0 1.786.31.833.302 1.452.914.624.613.972 1.54.347.922.347 2.159v.738H83.6v-1.666h5.655q0-.58-.252-1.029a1.8 1.8 0 0 0-.701-.7 2 2 0 0 0-1.029-.26q-.612 0-1.085.285a2 2 0 0 0-.733.751 2.1 2.1 0 0 0-.271 1.041v1.585q0 .72.265 1.243.272.524.764.808t1.167.284q.45 0 .82-.126.374-.126.638-.38.266-.25.404-.618l2.487.164a3.4 3.4 0 0 1-.776 1.566q-.58.663-1.502 1.035-.915.366-2.115.366M80.764 3.443V16.37h-2.688V3.443zM71.871 16.559q-1.495 0-2.575-.606a4.15 4.15 0 0 1-1.653-1.73q-.58-1.122-.581-2.657 0-1.495.58-2.625a4.3 4.3 0 0 1 1.635-1.761q1.06-.63 2.487-.631.96 0 1.786.31.834.302 1.452.914.624.613.972 1.54.347.922.347 2.159v.738h-8.186v-1.666h5.655q0-.58-.252-1.029a1.8 1.8 0 0 0-.7-.7 2 2 0 0 0-1.03-.26q-.612 0-1.085.285a2 2 0 0 0-.732.751 2.1 2.1 0 0 0-.272 1.041v1.585q0 .72.265 1.243.272.524.764.808t1.168.284q.448 0 .82-.126t.638-.38q.263-.25.404-.618l2.486.164a3.4 3.4 0 0 1-.776 1.566q-.58.663-1.502 1.035-.915.366-2.115.366M60.574 20.207q-1.307 0-2.24-.36-.929-.353-1.478-.965a2.97 2.97 0 0 1-.713-1.376l2.487-.335q.114.291.36.543t.65.404q.41.158.997.158.877 0 1.446-.43.574-.422.574-1.42v-1.773h-.114q-.176.405-.53.763-.353.36-.909.587-.555.228-1.325.228a4 4 0 0 1-1.988-.505q-.89-.51-1.42-1.56-.524-1.053-.524-2.663 0-1.647.536-2.751.536-1.105 1.427-1.654a3.7 3.7 0 0 1 1.962-.55q.815 0 1.364.279.549.27.883.681.342.405.524.795h.101V6.675h2.67v9.79q0 1.236-.606 2.07-.606.832-1.679 1.25-1.066.422-2.455.422m.057-5.996q.65 0 1.098-.322.454-.328.694-.934.246-.612.246-1.464t-.24-1.477q-.239-.63-.694-.978t-1.104-.348q-.663 0-1.117.36-.455.354-.688.985-.234.63-.234 1.458 0 .84.234 1.451.24.607.688.94.454.33 1.117.329M48.48 16.527a3.66 3.66 0 0 1-2.001-.568q-.89-.574-1.414-1.685-.518-1.117-.518-2.74 0-1.665.537-2.77.536-1.11 1.426-1.66a3.66 3.66 0 0 1 1.963-.555q.814 0 1.357.277.548.271.884.682.341.404.517.795h.082v-4.86h2.682V16.37h-2.65v-1.552h-.114q-.19.403-.536.801-.342.392-.89.65-.543.26-1.326.26m.851-2.14q.651 0 1.098-.353.455-.36.695-1.003.246-.644.246-1.509t-.24-1.502-.694-.985-1.105-.347q-.663 0-1.117.36t-.688.997-.233 1.477q0 .846.233 1.496.24.645.688 1.01.454.36 1.117.36M34.075 16.37V3.442h8.71v2.254h-5.977v3.08h5.529v2.253h-5.53v3.086h6.003v2.253z"></path> </svg>