<?xml version="1.0" encoding="UTF-8" standalone="no"?><!DOCTYPE svg PUBLIC "-//W3C//DTD SVG 1.1//EN" "http://www.w3.org/Graphics/SVG/1.1/DTD/svg11.dtd"><svg width="100%" height="100%" viewBox="0 0 11161 6916" version="1.1" xmlns="http://www.w3.org/2000/svg" xmlns:xlink="http://www.w3.org/1999/xlink" xml:space="preserve" xmlns:serif="http://www.serif.com/" style="fill-rule:evenodd;clip-rule:evenodd;stroke-linejoin:round;stroke-miterlimit:2;"><g id="_1" serif:id="1"><path d="M9646.99,2168.98c257.945,-38.492 519.095,-292.292 406.575,-413.5c-121.463,-130.821 -339.255,271.058 -406.575,413.5m-379.58,-152.079c415.388,-250.075 217.059,-568.546 64.321,-456.908c-117.954,86.216 -177.479,305.816 -64.321,456.908m-359.337,89.396c-176.354,-561.129 -411.95,-542.917 -434.517,-465.638c-36.783,126.013 154.329,431.004 434.517,465.638m-341.467,4054.05c178.909,-104.575 101.067,-231.104 -16.675,-175.15c-74.575,35.462 -82.321,106.658 16.675,175.15m-569.579,188.3c120.088,-28.317 384.796,-90.779 543.9,-174.129c-250.392,-188.592 201.271,-346.417 153.738,-113.805c-8.5,41.584 -47.742,80.063 -104.155,114.959c241.655,144.325 697.167,145.721 977.95,87.746c196.763,-40.638 374.042,-124.892 389.371,-284.25c46.684,-484.963 -1566.1,289.595 -1536.22,-310.163c22.384,-449.146 1569.6,232.908 1585.55,-199.821c16.484,-446.85 -1607.21,167.55 -1619.82,-283.033c-15.433,-551.917 1571.48,220.537 1583.48,-223.521c10.113,-374.346 -1399.62,101.142 -1740.74,-295.417c-152.109,-176.845 -41.821,-660.295 -181.142,-940.483c-358.571,-721.158 -818.462,-949.825 -775.842,-1929.54c48.221,-1108.73 1172.08,-1974.15 2293.6,-1766.17c996.121,184.725 1752.1,1206.75 1564.67,2217.18c-139.408,751.625 -556.225,1003.67 -724.029,1435.48c-99.629,256.334 -46.479,838.496 -243.683,983.338c-138.546,101.754 -532.467,5.537 -769.217,-17.358c-445.238,-43.08 -505.5,245.604 -379.213,-385.717c120.817,-603.988 116.98,-1255.19 -51.712,-1955.97c-14.263,-59.246 -29.783,-117.296 -46.583,-173.029c-395.821,-39.167 -600.563,-558.1 -390.996,-559c184.187,-0.067 317.771,231.975 411.366,533.008c91.984,5.405 194.934,-16.283 306.346,-78.3c-180.133,-237.783 58.959,-629.283 231.042,-495.029c116.979,91.25 76.692,297.079 -78.208,423.213c-38.059,31.004 -75.425,57.416 -111.988,79.654c92.038,109.233 211.95,144.033 330.621,134.187c75.021,-159.6 306.983,-598.954 458.458,-435.8c135.721,146.163 -155.562,428.388 -440.237,461.496c-317.879,694.296 -580.271,2052.38 235.054,2291.26c26.596,7.812 18.212,33.82 -9.954,25.5c-830.521,-245.709 -576.492,-1604.69 -256.3,-2314.09c-123.013,6.629 -246.379,-33.083 -341.492,-148.554c-113.921,64.3 -219.675,88.141 -314.808,84.446c121.066,405.391 178.775,953.604 180.162,1215.98c3.046,570.6 -49.808,721.971 -115.137,1076.58c-69.392,376.704 -35.121,152.242 386.154,193.021c394.4,38.154 618.975,115.383 748.083,21.425c89.509,-65.159 133.184,-212.709 155.704,-512.646c32.396,-431.588 87.842,-540.142 346.38,-902.908c222.958,-312.842 457.82,-682.017 483.854,-1211.81c50.283,-1022.73 -823.629,-1959.67 -1843.06,-1987.39c-1041.22,-28.342 -1955.65,787.066 -1989.04,1805.84c-30.655,935.117 422.495,1172.03 774.437,1879.53c141.642,284.759 34.596,770.65 177.7,935.205c338.175,388.862 1758.45,-109.325 1746.99,313.525c-13.271,489.966 -1597.67,-285.584 -1583.46,222.12c11.446,409.159 1637.87,-205.129 1619.81,284.75c-17.463,474.559 -1565.29,-205.891 -1585.55,200.117c-27.825,557.363 1587.68,-224.196 1536.13,311.463c-38.925,404.575 -997.713,382.641 -1275.58,278.97c-61.317,-22.87 -108.867,-46.408 -144.979,-69.8c-167.134,92.38 -445.875,157.113 -573.663,187.28c-2553.98,603.808 -856.121,668.612 -3594.65,342.916c-539.125,-64.121 -979.215,-82.833 -1404.92,-168.371l-0,-26.833c426.304,85.725 868.019,104.479 1409.54,168.667c2630.65,311.818 1020.28,268.908 3596.31,-345.925" style="fill:#1a1a1a;"/><path d="M570.429,2536.19c-41.479,94.725 -75.767,189.167 -102.159,282.129c0.15,-52.529 2.059,-104.696 5.805,-156.425c30.758,-42.454 62.904,-84.433 96.354,-125.704m1179.01,-1392.98c-224.183,153.771 -432.387,338.383 -614.692,539.679c-214.429,236.792 -393.066,496.871 -519.904,757.213c-47.825,55.17 -93.333,111.62 -136.383,169.145c48.858,-507.629 273.925,-955.937 702.792,-1261.85c133.2,-95.071 331.383,-168.109 568.187,-204.192m-295.758,4521.95c-100.192,-30.929 -193.309,-65.242 -279.642,-102.692c-20.837,-49.404 -39.229,-99.612 -56.362,-150.258c99.833,94.146 208.979,182.687 336.004,252.95m1482.39,190.192c-272.025,-1.384 -519.266,-15.734 -743.666,-41.605c118.316,-8.916 247.208,-30.645 388.675,-67.866c118.295,42.108 236.841,78.471 354.991,109.471m-2769.8,-1792.32c-3.442,153.392 6.1,289.45 38.929,439.879c-76.087,-117.092 -97.396,-170.892 -135.712,-304.112c11.416,-44.317 65.962,-107.571 96.783,-135.767m1000.48,1551.93c-23.279,-18.504 -45.479,-37.058 -66.712,-55.641c63.821,29.97 47.904,13.129 66.712,55.641m-249.641,-247.033c-84.534,-108.617 -138.217,-218.233 -165.725,-327.621l323.533,330.8c19.05,58.838 39.217,117.408 62.408,174.996c-119.366,-54.196 -128.583,-60.392 -220.216,-178.175m-201.729,-361.338c30.845,158.334 111.775,306.284 233.745,442.863c-365.291,-215.479 -575.3,-487.367 -679.87,-814.567c166.662,194.65 274.47,215.075 446.125,371.704m35.054,-326.808l4.404,-18.1c165.217,190.817 230.304,422.733 301.842,652.096l-315.634,-321.221c-19.137,-104.967 -14.666,-209.6 9.388,-312.775m-17.692,-42.775c-29.608,106.721 -39.437,216.154 -24.604,325.958c-46.517,-40.883 -94.233,-78.22 -144.217,-110.375c-129.962,-83.604 -234.279,-180.57 -315.141,-287.604c-26.221,-98.671 -42.696,-200.283 -50.596,-303.904l-3.729,-213.117l200.883,-94.841c-61.733,526.475 113.387,442.937 337.404,683.883m1028.7,1147.29c38.088,95.05 81.508,174.604 129.442,240.287c-88.9,-36.45 -178.029,-77.304 -267.4,-122.912c-159.475,-81.404 -294.696,-164.654 -407.938,-249.175c-8.866,-17.563 -17.3,-35.292 -25.375,-53.163c125.184,52.534 264.034,98.684 417.513,137.721c48.629,18.621 99.75,34.571 153.758,47.242m-56.375,-275.004c-18.721,-78.805 -34.925,-164.805 -48.396,-258.43c106.209,84.68 217.842,161.642 334.184,229.384c-94.255,19.8 -192.238,29.975 -285.788,29.046m821.008,732.729c-199.9,36.946 -387.72,2.791 -541.083,-150.75c182.142,67.966 362.9,117.704 541.083,150.75m3209.27,-1350.38l13.246,11.095c-108.979,115.446 -222.137,211.317 -338.979,289.755c94.071,-111.138 179.212,-227.7 254.383,-348.159c26.379,14.45 50.125,30.288 71.35,47.309m169.188,359.37c12.904,-131.645 -21.059,-254.683 -116.696,-349.566c141.208,-153.346 275.179,-339.563 400.671,-563.146c39.9,349.429 -67.246,659.221 -283.975,912.712m-399.729,-2153.3c-8.371,40.384 -22.205,83.55 -40.671,129.205c4.879,-46.405 8.779,-92.771 11.683,-139.05l28.988,9.845Zm-1243.29,-236.245c58.854,-52.542 154.154,-74.4 261.367,-87.621c15.608,34.521 30.85,69.671 45.671,105.462c-100.634,-8.966 -203.2,-15 -307.038,-17.841m-83.996,2669.05c-161.641,24.221 -328.421,38.9 -494.691,44.375c48.22,-42.508 95.15,-85.154 140.662,-127.291c119.233,25.679 237.479,44.675 354.438,55.704c-0.346,9.129 -0.459,18.183 -0.409,27.212m51.413,-8.075l-22.775,3.684l0.241,-20.267l40.78,3.071l-18.246,13.512Zm327.654,-41.075c90.412,-23.887 177.4,-51.358 259.708,-82.445c-7.416,17.07 -15.162,33.933 -23.304,50.637c-77.854,15.671 -156.671,26.058 -236.404,31.808m-906.371,122.18c177.242,-4.563 355.5,-19.488 528.129,-45.217l-0.012,0.317c-261.084,180.495 -528.05,277.829 -827.596,289.333c102.846,-77.683 203.392,-160.625 299.479,-244.433m-3377.76,-2055.17c34.329,48.208 83.933,96.658 150.762,144.6l-24.208,229.412l-203.021,93.459c8.525,-154.225 34.9,-311.084 76.467,-467.471m-19.863,-319.317c-52.004,90.104 -58,188.317 -0.279,288.033c-47.4,171.875 -76.825,344.48 -84.758,513.934c-49.075,34.466 -88.23,78.108 -115.496,135.133c-105.488,-550.421 109.866,-1057.97 391.629,-1461.53c-3.671,71.141 -4.067,143.037 -1.242,215.491c-10.516,47.171 -18.862,93.88 -24.921,139.917c-72.758,50.967 -129.675,108 -164.933,169.025m11.05,248.171c-67.287,-147.025 17.958,-276.604 134.896,-368.975c-53.238,121.4 -98.663,244.933 -134.896,368.975m161.533,182.867c-65.929,-49.367 -112.741,-98.942 -142.8,-147.905c33.588,-119.687 75.946,-238.925 125.763,-356.412c-12.354,197.358 28.696,284.746 17.037,504.317m93.838,94.3l110.517,63.395l8.625,22.9l-209.996,71.605l21.487,-200.992c21.5,14.412 44.567,28.804 69.367,43.092m95.8,23.112l-162.958,-98.233c13.491,-217.263 -14.946,-257.025 -18.35,-419.188l10.041,-184.791l9.109,-6.071c23.42,239.562 79.833,478.591 162.158,708.283m1797.39,-399.021l0.587,-13.637c10.908,3.516 21.763,7.2 32.546,11.033l-33.133,2.604Zm3426.4,-1181.04c2.487,121.245 -31.688,247.295 -105.613,369.191c-92.025,-133.504 -205.308,-260.391 -341.466,-378.271c-9.667,-15.354 -78.867,-358.254 -343.942,-699.641c394.487,58.812 782.737,298.296 791.021,708.721m-447.471,744.808c21.879,-14.25 42.925,-28.817 63.242,-43.575l-2.042,103.454c-20.004,-19.917 -40.321,-39.85 -61.2,-59.879m-4856.38,-51.75c13.967,27.275 34.275,50.95 61.517,70.075c-42.696,19 -82.892,39.608 -120.005,61.621c-2.512,-32.375 41.963,-100.571 58.488,-131.696m-14.138,-35.767l0.688,2.284c-17.083,31.625 -33.617,63.479 -49.683,95.508c-2.859,-61.533 20.65,-121.442 39.562,-181.421c-1.108,29.946 1.904,58 9.433,83.629m1242.24,2854.12c127.213,-3.683 272.375,-40.854 436.129,-119.638c111.225,51.83 223.142,98.275 335.234,139.638c-202.125,49.683 -377.917,66.792 -532.846,59.308c-77.746,-11.946 -152.438,-25.45 -224.217,-40.321c-4.85,-12.725 -9.629,-25.683 -14.3,-38.987m-225.033,-32.921c59.487,20.779 124.654,32.363 195.696,33.171l11.325,31.862c-96.317,-20.837 -118.842,-23.741 -207.021,-65.033m186.096,4.408c-251.246,-7.087 -421.134,-154.016 -520.538,-360.654c128.767,167.446 279.704,211.3 479.771,216.85c12.529,50.867 26.133,98.809 40.767,143.804m442.591,-106.591c-155.341,71.979 -292.925,105.054 -413.296,106.833c-14.858,-44.833 -28.662,-92.621 -41.425,-143.575c103.53,0.396 211.921,-12.358 314.78,-36.287c45.966,25.783 92.608,50.179 139.941,73.029m2343.3,-847.259c45.567,12.321 87.558,28.042 126.275,46.734c-56.475,10.479 -115.083,22.521 -176.021,36.212c16.079,-27.508 32.679,-55.158 49.746,-82.946m405.363,253.746c-19.05,-28.104 -40.159,-55.091 -63.388,-80.521c22.108,-32.304 43.775,-65.187 64.971,-98.6l-1.583,179.121Zm127.058,579.15c-1.038,90.588 -11.858,176.238 -29.154,249.604c-159.5,52.45 -330.584,92.417 -510.392,118.759c201.183,-108.688 367.908,-225.009 539.546,-368.363m-22.996,-249.596c5.004,24.496 9.117,49.125 12.421,73.688c-67.3,24 -135.513,43.521 -204.521,58.85c38.592,-82.679 4.533,-48.033 192.1,-132.538m-20.283,-82.266c5.233,17.941 9.983,36.079 14.171,54.312l-147.025,67.754c33.416,-89.504 56.854,-183.566 69.012,-281.966c26.704,50.929 47.75,104.712 63.842,159.9m44.846,571.129c16.929,-77.879 26.82,-168.113 26.12,-262.929c97.817,-84.746 189.675,-174.792 274.909,-269.179c147.204,-87.796 288.912,-201.405 424.154,-344.767c96.358,96.267 125.046,223.904 103.746,359.45l-1.159,7.037c-130.387,142.175 -295.783,265.15 -488.362,365.771c-105.4,55.121 -219.017,103.417 -339.408,144.617m-39.675,42.304c-39.421,116.367 -147.767,195.075 -277.638,245.529c-36.067,2.084 -234.012,-95.554 -276.362,-123.658c195.454,-25.238 381.291,-66.4 554,-121.871m-230.721,255.942c126.437,-56.259 229.933,-142.504 262.837,-266.446c310.125,-103.796 604.063,-264.554 824.204,-490.171c-107.4,417.767 -624.85,841.646 -1087.04,756.617m-169.879,28.029c-179.705,44.262 -370.546,45.825 -471.805,25.183c105.196,-59.104 185.025,-127.671 283.363,-176.808c72.583,50.892 160.912,93.562 266.829,129.175c-25.642,8.429 -51.867,15.887 -78.387,22.45m-1372.96,-245.313l19.967,7.988l-10.654,7.633c-23.875,-4.483 -47.767,-9.233 -71.717,-14.133l62.404,-1.488Zm-799.071,-422.833c90.917,68.221 199.8,137.146 328.692,206.288c-61.546,20.533 -120.946,38.362 -178.258,53.62c-117.338,-42.091 -234.471,-89.804 -350.892,-143.3c64.058,-32.5 130.862,-71.208 200.458,-116.608m-26.175,-20.092l2.817,2.184c-73.038,47.221 -142.846,86.871 -209.446,119.521c-44.783,-21.171 -89,-43.692 -132.6,-67.505c87.858,-23.279 170.7,-54.795 241.667,-93.354c31.129,13.692 63.658,26.734 97.562,39.154m748.892,-1384.97c-14.058,2.516 -28.138,5.171 -42.225,7.966c3.012,-22.025 5.921,-45.77 8.675,-71.225c11.558,20.792 22.758,41.875 33.55,63.259m1159.66,879.137c-51.033,-56.504 -93.537,-132.971 -124.691,-233.046c110.162,-6.275 207.212,1.9 292.466,21.663c-105.904,173.004 -27.266,74.575 -167.775,211.383m31.125,31.075l-11.979,-11.187l35.792,-34.646c-8.163,15.329 -16.075,30.629 -23.813,45.833m367.892,125.721c64.558,-7.829 130.962,-24.45 197.55,-47.692c-11.808,113.83 -38.975,221.846 -79.433,323.688c-127.792,49.971 -267.455,90.854 -414.292,123.008c-31.429,0.117 -63.004,-0.354 -94.688,-1.546c139.813,-113.17 270.85,-247.308 390.863,-397.458m190.708,-74.642c-55.896,19.671 -111.521,34.534 -165.862,43.23c33.566,-43.155 66.216,-87.525 97.916,-133.067c25.259,28.221 47.825,58.292 67.946,89.837m530.646,-273.787c32.358,-25.563 63.117,-51.342 91.867,-76.808c-3.792,31.812 -9.904,62.737 -18.213,92.812c-23.404,-6.021 -47.95,-11.367 -73.654,-16.004m-365.104,233.692c119.037,-58.646 234.446,-133.388 335.829,-210.917c33.679,5.296 65.292,11.808 95.021,19.467c-65.788,202.579 -233.225,364.058 -461.583,486.991l-93.738,-241.008c41.667,-15.921 83.3,-34.288 124.471,-54.533m297.6,-216.33c-126.263,93.955 -275.321,184.125 -425.004,242.288l2.554,-242.058c165.096,-15.992 305.087,-14.963 422.45,-0.23m162.825,-133.82c-39.888,36.333 -84.288,73.645 -132.029,110.45c-120.304,-17.755 -264.592,-20.863 -435.634,-5.663c127.93,-213.996 236.042,-447.246 319.992,-690.142c77.175,59.484 137.004,123.888 168.729,196.938c61.396,141.375 85.692,270.775 78.942,388.417m427.487,-1346.61c-56.125,-228.829 -194.562,-384.241 -373.229,-484.508c59.617,-56.233 109.409,-114.808 149.729,-174.613c139.346,212.496 226.609,442.788 264.9,685.742c-13.475,-8.992 -27.262,-17.871 -41.4,-26.621m19.175,384.367c14.15,-129.938 9.488,-244.842 -10.645,-346.204c13.083,8.471 25.883,17.041 38.37,25.691c17.563,128.905 21.146,259.755 11.796,390.921c-12.583,-23.371 -25.729,-46.825 -39.521,-70.408m-44.462,-367.438c22.25,95.405 29.975,203.809 20.071,326.634c-99.038,-162.054 -226.725,-329.096 -385.804,-500.079l365.733,173.445Zm-1832.84,-433.429c76.2,-59.65 219.15,-115.225 393.346,-151.546l18.488,39.296c-120.888,15.45 -227.288,42.717 -287.575,113.154c-41.275,-0.8 -82.692,-1.145 -124.259,-0.904m56.671,192.104c-116.017,-45.57 -144.412,-100.916 -87.125,-164.225c45.188,-0.495 90.204,-0.366 135,0.355c-25.854,43.116 -42.646,119.975 -47.875,163.87m567.446,177.546c14.542,2.171 28.892,4.125 43,5.879l-36.588,15.355l-6.412,-21.234Zm-39.571,-34.179c-144.654,-24.725 -310.833,-68.079 -500.587,-133.371c4.675,-47.866 21.145,-129.654 53.683,-173.229c116.496,2.654 231.433,9.308 343.879,19.683c36.958,91.375 71.4,187.05 103.025,286.917m844.179,-272.096c24.096,-76.212 7.967,-87.921 34.675,-111.566c168.084,92.35 300.167,234.77 359.559,443.445c-112.05,-65.737 -241.934,-124.604 -385.746,-175.579c8.625,-53.833 8.279,-106.933 -8.488,-156.3m-48.629,104.571c12.017,-18.671 22.471,-38.329 31.446,-58.771l0.408,92.504l-31.916,-32.537l0.062,-1.196Zm19.117,-103.925c-4.954,14.529 -10.629,28.679 -17.021,42.458l0.904,-74.612c6.338,10.237 11.683,20.967 16.117,32.154m18.429,-72.996c-1.933,11.075 -4.179,21.929 -6.746,32.638c-3.542,-6.146 -7.325,-12.129 -11.429,-18.013l18.175,-14.625Zm6.983,-59.337c-2.004,24.629 2.679,16.729 -41.912,51.916c-0.379,-24.075 -1.038,-48.145 -2.042,-72.133l43.954,20.217Zm22.596,-141.071c-16.804,-132.538 -65.683,-274.079 -137.125,-409.65c121.808,110.271 224.042,228.029 307.9,351.458c-41.721,63.617 -94.475,126.009 -158.737,185.688l-6.009,-3.088c1.504,-40.233 -0.596,-81.85 -6.029,-124.408m-117.033,-304.625c58.396,132.412 98.212,278.817 95.733,415.521l-46.596,-20.7c-6.871,-134.154 -23.029,-266.254 -49.137,-394.821m-1586.12,-535.088l-25.112,12.384c-45.871,-25.734 -92.455,-51.513 -139.85,-77.317c20.333,-9.171 40.5,-18.012 60.616,-26.683c35.179,29.3 69.979,59.829 104.346,91.616m429.375,-179.691c-156.946,57.546 -290.375,113.271 -402.667,166.812c-33.733,-31.546 -67.895,-61.883 -102.504,-90.971c117.284,-49.504 230.534,-90.433 339.509,-123.495c56.633,15.125 111.85,31.012 165.662,47.654m-425.596,208.396l17.604,-8.588c15.492,14.679 30.9,29.633 46.18,44.821l-63.784,-36.233Zm1122.2,-116.58c27.842,-74.9 48.417,-144.675 62.35,-209.57c143.113,186.116 246.325,395.554 315.113,619.366c-100.063,-158.408 -231.054,-304.866 -377.463,-409.796m-855.191,-878.125c482.854,-66.654 992.725,20.509 901.512,603.642c-215.596,-261.912 -511.95,-472.275 -901.512,-603.642m-1397.04,513.421c62.154,-36.079 125.5,-70.737 189.625,-103.971l345.212,144.496c-169.483,-18.858 -347.687,-32.471 -534.837,-40.525m-274.971,2281.98c75.529,-4.304 150.388,-20.637 223.046,-46.962l-58.821,143.762c-56.146,-37.208 -110.879,-69.404 -164.225,-96.8m-468.35,-149c10.058,7.675 20.183,15.03 30.342,22.092c-34.559,-1.475 -68.25,-0.667 -101.013,2.308c22.996,-8.558 46.579,-16.687 70.671,-24.4m-47.762,-39.137c7.204,6.3 14.45,12.471 21.741,18.467c-53.746,17.841 -104.85,37.833 -153.362,59.729c43.575,-26.917 87.487,-52.971 131.621,-78.196m810.125,81.467c-9.021,4.27 -18.038,8.475 -27.155,12.412c2.68,-9.537 4.988,-18.646 6.996,-27.246l20.159,14.834Zm323.162,-197.013c22.367,-22.05 43.954,-44.996 64.696,-68.658l3.617,98.312c-23.23,-9.383 -45.975,-19.316 -68.313,-29.654m-1061.71,-1355.5c-36.65,9.196 -72.45,19.396 -107.38,30.558c23.942,-27.47 48.888,-54.762 74.946,-81.804c11.342,15.813 22.163,32.909 32.434,51.246m-1298.62,1619.04c-9.017,73.004 -14.53,145.175 -16.78,215.866l-29.866,-16.933c-63.221,-171.029 -111.179,-345.133 -142.204,-518.746c-13.592,-76.033 -23.892,-151.929 -30.875,-227.446c44.325,-27.087 93.525,-52.116 146.445,-74.65c12.38,6.225 25.817,11.788 40.388,16.563c-27.842,156.375 -18.633,329.504 46.187,512.8c-5.029,30.979 -9.487,61.825 -13.295,92.546m10.462,342.737c-0.683,-26.392 -0.875,-53.071 -0.546,-80l368.571,204.196c-71.133,77.071 -134.521,156.562 -188.1,237.879c-67.45,-117.6 -127.662,-238.771 -179.925,-362.075m343.971,876.908l12.037,3.988c1.509,49.292 5.309,97.896 11.33,145.558c-10.888,-48.083 -18.709,-98.133 -23.367,-149.546m-256.2,-284.037c57.721,131.054 135.017,227.108 227.396,271.908c14.183,182.338 42.191,237.304 98.296,380.154c54.258,155.371 112.016,280.646 238.508,387.159c-96.217,-65.367 -181.904,-140.742 -261.975,-218.834c-23.354,-37.708 -100.625,-465.812 -335.358,-726.25c9.333,-31.545 20.395,-62.891 33.133,-94.137m-84.633,-285.492c16.929,91.338 40.387,175.45 69.733,249.642c-15.45,35.333 -28.867,70.842 -40.1,106.554c-222.621,-230.987 -379.088,-146.621 -317.363,-663.308l223.684,-76.288c10.721,27.342 21.833,54.659 33.325,81.863c2.883,106.337 13.371,207.812 30.721,301.537m85.8,214.567c-49.805,-136.704 -76.43,-293.204 -85.725,-445.379c47.637,105.941 101.091,210.162 159.883,311.633c-27.75,44.071 -52.567,88.7 -74.158,133.746m224.145,310.771c-85.687,-47.463 -157.229,-144.388 -210.275,-274.817c21.655,-48.021 47.142,-95.621 76.088,-142.608c210.4,355.879 117.029,87.771 134.187,417.425m42.255,18.946l-13.705,-5.192c-3.787,-58.5 -3.391,-118.596 1.409,-179.367c31.546,43.55 10.704,67.238 12.296,184.559m1032.23,-141.2l10.591,-4.267l-3.362,6.454l-7.229,-2.187Zm-74.379,29.441c36.47,-14.225 25.041,-15.329 69.479,-2.1c-7.254,16.171 -13.65,32.513 -19.175,49.079l-58.575,-30.395l8.271,-16.584Zm-914.421,150.509c42.866,5.879 85.679,9.42 128.183,10.895c529.225,615.696 310.05,107.2 440.4,664.821c-69.725,-2.429 -136.487,-11.241 -196.762,-27.066c-141.655,-37.246 -256.121,-149.896 -331.421,-304.634c-32.563,-107.137 -50.838,-224.841 -55.221,-346.558c4.904,0.992 9.846,1.842 14.821,2.542m103.7,-17.83l-119.279,-13.07l2.92,-133.642c37.442,49.958 76.25,98.904 116.359,146.712m789.266,-154.233l-34.262,12.917l-30.3,-16.5c21.129,-0.379 42.717,0.854 64.562,3.583m980.071,-396.737c27.792,-17.409 54.309,-35.113 79.621,-53.059c-19,65.113 -42.371,88.709 -79.621,53.059m89.779,-94.446c-33.691,24.991 -69.812,49.575 -108.37,73.583c-19.584,-24.804 -41.334,-60.108 -64.821,-100.75c61.408,-18.975 123.779,-35.267 186.208,-48.746c-4.062,29.046 -8.429,54.271 -13.017,75.913m101.08,-82.4c-23.33,21.016 -48.209,41.846 -74.638,62.421c3.721,-18.492 7.254,-38.771 10.654,-60.959c19.788,-3.987 39.563,-7.775 59.309,-11.187l4.675,9.725Zm-789.13,-637.529c-29.791,21.45 -60.033,44.4 -90.637,68.833c-5.463,-33.388 -12.638,-65.325 -21.213,-95.958c36.613,-5.5 74.184,-10.1 112.705,-13.817l-0.855,40.942Zm67.134,-46.43c-12.904,8.521 -25.921,17.396 -39.025,26.492l0.566,-23.537l38.459,-2.955Zm-446.888,1744.17c47.013,10.696 96.025,19.217 146.521,25.834c41.25,61.658 96.075,124.445 166.179,188.025l-9.096,5.204c-122.504,-55.384 -234.391,-127.371 -303.604,-219.063m-363.437,-162.6c81.954,69.025 192.987,118.988 321.25,152.363c11.525,8.333 62.887,126.858 315.187,245.746l-244.958,88.229c-133.058,-75.492 -259.971,-162.967 -379.746,-260.484l-11.733,-225.854Zm-29.846,-27.254l10.392,227.379c-123.763,-103.579 -239.65,-217.829 -346.65,-340.396c83.095,0.609 165.237,-6.475 245.862,-19.191c20.763,49.496 51.396,93.446 90.396,132.208m1767.26,25.296c-100.087,44.367 -218.233,82.071 -345.704,111.346c122.425,-66.017 237.883,-122.763 346.738,-171.009c0.112,20.13 -0.196,40.017 -1.034,59.663m-528.333,139.5l0.142,6.962l-316.234,31.263c18.059,-65.975 6.388,-128.258 -24.712,-190.358c113.421,52.679 227.112,103.733 340.804,152.133m61.354,437.504c4.117,14.933 8.488,29.746 13.008,44.358c-43.654,16.934 -86.35,32.592 -128.041,46.992c-119.538,-62.817 -222.125,-125.346 -309.134,-187.258c127.713,40.571 271.059,72.662 424.167,95.908m155.233,295.046c-12.166,-19.254 -23.725,-39.308 -34.695,-60.083c43.662,19.508 88.954,39.029 136.029,58.558c-34.113,0.7 -67.904,1.204 -101.334,1.525m80.405,105.196c-19.405,-20.767 -37.734,-43.296 -54.98,-67.375c39.384,8.75 78.755,16.916 117.984,24.5c-20.954,14.616 -41.975,28.929 -63.004,42.875m1180.44,-11.242c5.971,-11.354 11.229,-23.05 15.688,-35.062c10.908,10.212 22.429,20.208 34.516,30.008l-50.204,5.054Zm-34.441,52.479c6.12,-7.571 11.808,-15.304 17.129,-23.233l40.933,-3.808l-58.062,27.041Zm-224.284,129.109c25.021,-14.013 72.404,-31.092 102.913,-40.221c-18.267,17.562 -54.742,37.387 -77.421,49.704l-25.492,-9.483Zm215.713,-589.296c47.875,114.758 65.504,218.362 45.958,317.983c-74.762,-84.267 -112.317,-181.333 -120.792,-288l74.834,-29.983Zm-67.375,-133.042c14.516,24.442 27.95,49.017 40.121,73.542c-15.942,-1.025 -31.955,-2.25 -47.996,-3.559c1.5,-22.962 4.162,-46.316 7.875,-69.983m-599.654,-577.871l-3.98,-1.612l8.459,-3.084l-4.479,4.696Zm-632.088,302.567l-4.212,14.1l-21.684,-8.867l25.896,-5.233Zm21.758,24.625c3.059,-10.704 6.263,-21.196 9.567,-31.392c132.017,-29.187 255.054,-67.362 360.042,-112.662c-6.767,97.816 -24.538,179.629 -56.959,261.608c-103.912,-35.904 -208.22,-75.412 -312.65,-117.554m104.446,858.533c88.367,76.013 169.85,95.725 288.088,117.134c161.8,27.637 299.846,38.966 416.596,36.695c-360.817,94.159 -749.467,122.742 -1152.84,66.063c146.192,-46.458 297.725,-124.167 448.158,-219.892m-104.646,-133.029c23.113,44.029 51.23,81.825 83.717,113.779c-166.204,105.234 -333.3,187.659 -492.296,229.263c-214.5,-34.863 -432.9,-94.084 -653.35,-180.379c-55.446,-66.488 -105.433,-150.409 -148.829,-254.075c67.396,13.891 139.167,22.808 215.95,25.791c288.963,43.663 619.013,66.713 994.808,65.621m-46.575,-120.842c7.355,27.346 16.055,53.021 26.063,77.075c-118.579,-29.791 -237.596,-65.2 -356.492,-106.333c53.509,-15.075 108.792,-32.412 165.813,-51.971c51.791,27.063 106.616,54.138 164.616,81.229m-21.395,-113.958c3.287,28.183 7.733,55.071 13.283,80.567c-42.379,-19.984 -83.125,-39.95 -121.983,-59.875c33.6,-11.929 67.85,-24.613 102.725,-38.138l5.975,17.446Zm22.87,-58.546l-1.129,-22.579l42.988,5.692l-41.859,16.887Zm4.875,54.584l-2.625,-25.575c31.288,-12.421 63.209,-25.592 95.513,-39.292c143.75,15.975 293.992,24.596 446.346,25.55c34.108,0.212 68.35,0.037 102.654,-0.521c-98.008,84.633 -200.333,167.983 -304.6,245.3l-68.238,2.096c-78.904,-31.663 -153.125,-63.321 -222.858,-94.933c-17.017,-35.85 -32.437,-73.534 -46.192,-112.625m54.967,203.725c-8.608,-18.421 -16.433,-37.9 -23.354,-58.471c10.55,20.979 21.687,41.35 33.358,60.933l-10.004,-2.462Zm94.021,132.791c-29.013,-27.725 -54.533,-60.237 -75.988,-97.908c24.959,-0.113 27.65,31.154 84.088,92.571l-8.1,5.337Zm1238.73,-102.516c84.238,-43.688 168.646,-91.913 251.992,-143.788c-59.7,70.025 -126.721,135.379 -199.833,195.871c-19.384,-15.175 -37.134,-30.821 -53.442,-47.104l1.283,-4.979Zm-168.071,81.166c44.463,-19.85 89.175,-41.15 133.946,-63.754c-6.808,19.646 -15.587,38.454 -26.454,56.338c-35.575,3.008 -71.425,5.47 -107.492,7.416m-310.758,115.863c77.925,-22.796 158.088,-51.388 239.458,-85.117c53.317,-1.867 106.109,-4.854 158.342,-8.925c-14.537,18.325 -31.725,35.408 -51.675,51.129c-70.917,29.821 -143.304,57.121 -217.029,81.663c-43.867,-12.904 -87.008,-25.8 -129.096,-38.75m-281.508,56.796c308.304,-30 122.058,-75.184 363.996,-2.984c-63.388,20.088 -251.93,14.413 -363.996,2.984m182.383,-58.88c-231.283,54.7 -437.921,74.296 -609.829,-92.975c27.1,-18.087 54.179,-36.683 81.142,-55.716c58.9,10.816 117.591,20.296 175.979,28.483c109.783,40.233 227.208,80.317 352.708,120.208m259.4,-81.05c-70.942,27.088 -140.683,49.988 -208.446,68.171c-97.512,-30.454 -190.287,-61.062 -278.387,-91.691c165.429,18.083 328.271,25.741 486.833,23.52m268.021,-119.041c-65.229,32.858 -130.267,62.896 -194.567,89.7c-219.329,7.341 -447.471,-4.354 -680.087,-36.954c-41.263,-15.088 -81.442,-30.242 -120.546,-45.338c23.621,-17.5 391.958,37.146 873.596,-290.367c10.721,104.334 48.883,199.646 121.604,282.959m356.45,-205.767c-98.408,64.15 -198.692,123.308 -298.817,176.104c14.4,-93.45 -5.246,-199.379 -49.354,-307.241l121.604,-21.996c116.825,-1.375 231.95,-12.092 344.959,-33.375c-34,65.112 -73.688,127.341 -118.392,186.508m472.987,-323.212c190.567,-166.959 357.305,-346.738 480.3,-525.084c9.388,4.013 18.455,8.196 27.309,12.5c-90.046,144.067 -194.488,282.471 -311.659,412.596c-64.329,38.213 -129.666,71.413 -195.95,99.988m-69.75,59.616l203.7,-92.725c-62.325,65.279 -127.904,128.229 -196.512,188.529c-1.163,-31.608 -3.488,-63.625 -7.188,-95.804m-239.454,185.229c73.225,-52.416 144.829,-107.316 213.954,-164.087c3.255,33.021 5.055,65.837 5.642,98.121c-176.217,151.408 -370.325,284.329 -579.771,394.771c119,-104.446 194.984,-210.746 215.559,-229.913c48.741,-31.8 97.05,-64.808 144.616,-98.892m167.471,-161.9l-266.346,197.092c32.642,-48.275 62.117,-98.35 88.117,-150.208c60.042,-12.521 119.479,-28.05 178.229,-46.884m595.975,-618.579c-133.058,191.704 -317.662,385.392 -528.117,562.646c-3.516,-24.921 -7.862,-49.846 -13.158,-74.625c239.471,-127.292 415.138,-295.417 483.313,-507.442c20.266,5.955 39.612,12.396 57.962,19.421m-235.458,-1099.5c-34.938,-11.4 -72.021,-21.916 -111.263,-31.62c66.929,-99.442 126.734,-194.642 175.154,-283.746c-16.495,105.55 -37.891,210.971 -63.891,315.366m452.733,575.542c-11.367,166.367 -94.921,342.442 -201.371,500.658c-20.816,-8.125 -42.775,-15.608 -66.004,-22.391c11.379,-41.321 18.667,-84.329 21.7,-128.917c98.658,-91.146 169.383,-175.958 194.775,-231.904c18.183,-40.025 35.025,-79.096 50.9,-117.446m-997.233,569.646c15.491,-27.025 30.746,-56.033 45.683,-87.046c19.629,-2.5 38.908,-4.775 57.896,-6.833c-25.058,40.45 -50.825,80.137 -77.267,118.987c-8.508,-8.562 -17.271,-16.929 -26.312,-25.108m-165.254,210.696c51.929,-45.392 102.654,-106.796 150.879,-186.375c8.491,7.85 16.75,15.871 24.766,24.054c-37.929,54.687 -77.22,107.658 -117.795,158.825l-57.85,3.496Zm-368.963,55.446l-73.833,-35.646l115.237,-114.559c6.196,6.084 12.521,11.88 18.938,17.48c-22.109,44.737 -42.329,89.05 -60.342,132.725m546.967,-348.809c-11.225,22.571 -22.592,43.946 -34.113,64.225l-67.041,-48.808c34.591,-5.75 68.3,-10.908 101.154,-15.417m470.487,-2030.11c-2.783,-11.863 -5.741,-23.533 -8.866,-34.938c58.891,13.738 116.258,31.267 171.02,52.996c0.863,19.238 1.538,38.529 2.03,57.871c-39.663,-32.487 -93.688,-58.1 -164.184,-75.929m22.413,126.325c-4.113,-33.575 -9.421,-65.658 -15.75,-96.379c51.958,14.45 157.891,58.383 158.333,92.95c-26.492,19.862 -54.421,39.321 -83.771,58.333c-19.279,-18.25 -38.833,-36.562 -58.812,-54.904m7.787,86.592c-0.891,-15.371 -2.033,-30.392 -3.421,-45.255l30.559,28.73l-27.138,16.525Zm2.438,57.695l-0.854,-26.533c15.8,-9.208 31.295,-18.579 46.383,-28.029c25.821,24.65 50.892,49.254 75.375,73.75l-10.258,13.462c-36.134,-11.341 -73.017,-22.212 -110.646,-32.65m-1.475,128.196c1.562,-34.204 2.158,-67.3 1.904,-99.279c30.625,8.521 60.796,17.375 90.4,26.592l-92.304,72.687Zm-64.959,462.875c34.925,-159.066 55.334,-302.112 63.18,-430.329l123.258,-95.996l6.742,2.129c-4.688,77.221 -12.192,154.663 -22.363,232.067c-44.262,90.313 -102.937,188.446 -170.817,292.129m-317.4,965.417c92.659,-222.833 166.513,-426.671 223.738,-612.738c34.15,20.863 66.608,42.163 96.75,64.121c-82.758,241.417 -189.488,473.321 -315.888,686.046c-1.133,-46.358 -2.658,-92.192 -4.6,-137.429m-60.754,142.708c12.113,-27.771 23.896,-55.246 35.442,-82.471c1.196,34.125 2.096,68.53 2.817,103.238l-50.046,5.662l11.787,-26.429Zm260.234,-770.037c-52.642,171.691 -119.634,358.804 -202.617,562.354c-6.529,-122.946 -16.154,-241.946 -28.729,-356.958l172.546,-239.067c20.025,11.15 39.637,22.329 58.8,33.671m128.704,-1177.27c5.316,24.117 9.929,49.163 13.816,75.121c-33.212,-29.975 -67.337,-60.058 -102.45,-90.183c32.08,3.858 61.596,8.9 88.634,15.062m-782.388,-535.283c53.288,-6.538 106.504,-8.988 158.788,-6.779c-25.284,21.295 -52.209,41.083 -80.554,59.387c-25.73,-17.529 -51.842,-35.067 -78.234,-52.608m-251.675,30.796c-138.391,47.883 -267.696,118.787 -371.704,202.458c-33.379,11.492 -622.671,-37.342 -439.271,-315.7c55.754,-84.633 179.946,-183.046 395.746,-292.088c55.842,31.434 110.504,62.788 164.083,94.142l251.146,311.188Zm110.971,-32.9c-28.117,6.908 -56.029,14.854 -83.617,23.75l-198.6,-254.896c121.792,72.596 237.78,144.871 347.942,216.871c-21.996,4.137 -43.921,8.9 -65.725,14.275m-67.258,47.57l166.841,-39.645c31.763,20.904 62.917,41.816 93.738,62.695c-58.583,35.025 -122.367,64.1 -188.875,87.596c-23.408,-37.825 -47.308,-74.7 -71.704,-110.646m-371.313,187.863c98.338,-73.717 217.313,-136.071 343.909,-178.896c24.57,35.954 48.65,72.9 72.233,110.833c-135.608,44.325 -281.063,66.075 -416.142,68.063m-265.571,420.65c2.971,-22.975 6.571,-46.496 10.821,-70.575c19.904,-112.904 101.871,-225.833 219.354,-322.317c149.446,1.613 313.963,-21.041 466.296,-71.816c50.775,83.375 99.009,171.541 144.413,264.591c-192.509,41.275 -348.263,107.121 -421.817,177.446c-138.675,1.75 -278.842,9.192 -419.067,22.671m1281.48,-1014.88l-6.617,-11c16.567,-36.896 31.538,-72.721 45.008,-107.471c130.534,94.983 248.821,224.246 342.842,365.191c-112.979,-88.241 -239.804,-170.866 -381.233,-246.72m219.55,556.762c-30.471,-159.104 -92.546,-330.058 -193.529,-511.221c150.541,83.692 283.745,175.259 400.562,273.329c64.196,75.705 96.775,433.871 102.796,542.517c-57.229,-21.896 -117.071,-39.458 -178.396,-53.058c-29.075,-93.625 -71.742,-178.854 -131.433,-251.567m22.983,231.804c-0.187,-55.637 -4.317,-113.121 -12.954,-172.375l90.35,185.65c-25.592,-5.083 -51.413,-9.45 -77.396,-13.275m-1.525,63.259c0.625,-11.696 1.058,-23.484 1.258,-35.342c29.275,4.354 58.384,9.483 87.088,15.533c3.342,11.325 6.462,22.934 9.396,34.721c-29.846,-6.262 -62.396,-11.204 -97.742,-14.912m-40.737,242.929c17.97,-61.546 30.583,-126.384 37.145,-194.367c144.821,124.171 129.413,92.317 135.088,201.654c-60.879,34.759 -22.767,25.234 -172.233,-7.287m-46.205,126.846c14.271,-32.309 27.017,-65.771 38.075,-100.242c35.08,7.583 69.663,15.608 103.775,23.992c-47.987,26.691 -95.291,52.145 -141.85,76.25m-69.433,130.516c18.075,-28.712 34.863,-58.625 50.229,-89.608c65.379,-33.225 132.084,-68.9 200.204,-107.267l39.471,10.438c0.459,38.979 -0.391,79.558 -2.654,121.821c-74.992,36.995 -169.846,59.904 -287.25,64.616m129.896,-539.508c-0.179,10.567 -0.517,21.071 -0.975,31.521l-44.221,-36.779c15.125,1.55 30.175,3.304 45.196,5.258m-507.275,-1229.03c-234.429,-282.271 -479.642,-465.434 -725.121,-568.659l149.708,-28.825c403.467,126.046 709.092,335.409 930.363,598.829c-109.446,-11.35 -227.963,-12.366 -354.95,-1.345m117.617,151.308c-31.955,-43.763 -64.084,-85.546 -96.421,-125.475c64.075,-4.979 346.166,-9.567 359.971,7.442c-13.092,67.933 -34.038,141.733 -63.363,221.691c-64.883,-43.996 -132.104,-79.35 -200.187,-103.658m141.32,209.462c-36.941,-59.054 -74.291,-115.154 -112.037,-168.566c54.625,23.025 108.583,53.237 160.958,89.333c-11.796,30.754 -24.85,62.479 -39.15,95.096l-9.771,-15.863Zm-1849.4,-988.875c-209.562,55.488 -408.637,158.105 -589.329,293.484c-120.871,-17.313 -238.991,-25.604 -352.387,-25.996c-79.963,-0.296 -157.609,3.367 -232.288,10.525c349.329,-220.775 743.229,-370.304 1139.38,-378.713c379.017,-8.087 707.617,32.996 990.192,113.642c-44.438,8.238 -89.583,17.729 -135.292,28.438c-266.737,-101.63 -545.658,-114.059 -820.271,-41.38m-550.662,299.313c389.525,-283.654 856.479,-407.517 1322.03,-246.125c-296.938,74.308 -610.375,196.062 -904.621,347.6c-140.475,-46.521 -280.558,-79.796 -417.404,-101.475m-368.504,299.058c-30.479,34.309 -60.059,69.5 -88.604,105.554c-172.05,46.05 -339.017,111.33 -498.48,192.163c193.488,-139.813 392.892,-243.142 587.084,-297.717m-385.913,649.15c36.979,-83.437 79.296,-165.708 126.442,-245.729c32.204,21.488 62.242,48.892 89.612,82.792c-162.233,168.246 -42.837,87.337 -216.054,162.937m-185.612,966.767c17.233,110.237 48.946,215.621 96.508,313.45c-36.446,10.95 -73.467,23.329 -111.012,37.158c-1.863,-104.8 2.67,-221.371 14.504,-350.608m123.7,305.475c-54.65,-111.138 -121.896,-338.129 -106.542,-461.738c36.654,147.246 148.846,327.93 230.963,431.546c-40.742,8.204 -82.221,18.25 -124.421,30.192m750.912,628.929l12.204,3.771l-12.079,11.954l-0.125,-15.725Zm-135.075,-52.275c36.779,16.692 72.517,30.988 107.313,43.017c0.254,17.3 0.358,34.204 0.229,50.775c-47.85,42.808 -99.096,79.429 -151.892,108.204c19.279,-70.692 33.988,-138.013 44.35,-201.996m-22.125,-41.046c-64.162,-31.2 -131.354,-69.683 -201.675,-116.075c53.034,-53.162 105.129,-101.958 156.246,-146.625c19,5.363 37.975,9.834 57.013,13.454c4.333,76.475 0.825,159.446 -11.584,249.246m128.929,54.596c-33.183,-11.846 -67.308,-25.842 -102.387,-42.062c13.312,-92.517 17.542,-178.088 13.617,-257.017l79.766,8.454l9.004,290.625Zm62.08,20.046c-11.317,-3.267 -22.696,-6.796 -34.217,-10.554l-8.846,-286.642c58.583,29.067 118.975,64.088 181.125,105.371c-37.958,69.783 -85.042,134.683 -138.062,191.825m615.62,-99.863c13.371,-12.804 26.317,-26.225 38.796,-40.32c-1.991,32.229 -4.062,62.558 -6.208,90.995l-32.588,-50.675Zm-144.333,102.042c44.692,-22.15 85.888,-50.15 123.658,-83.158c61.763,94.462 53.584,65.229 37.592,192.408c-68.479,14.463 -136.933,32.279 -204.229,53.3l-68.808,-121.721c39.395,-9.754 76.658,-23.479 111.787,-40.829m382.292,-529.817c11.546,-40.566 21.425,-82.425 29.704,-125.25c47.821,40.796 81.337,92.913 99.612,152.875c-44.441,-7.533 -87.533,-16.791 -129.316,-27.625m5.066,-144.283c-8.608,46.963 -19.25,92.8 -31.82,137.046c-43.846,-12.271 -86.246,-26.179 -127.192,-41.708l-7.088,-137.096l16.538,-20.359c57.846,11.584 107.987,32.905 149.562,62.117m35.88,-620.846c-26.996,-188.341 -80.05,-370.1 -157.709,-524.941c203.088,163.02 233.542,408.675 171.034,641.72c-3.342,-39.075 -7.775,-78.083 -13.325,-116.779m-1475.61,-913.737c-19.82,6.808 -39.379,13.946 -58.708,21.45c-81.408,-35.725 -172.9,-41.938 -268.808,-25.684c145.833,-73.695 298.029,-134.208 454.608,-178.75c-45.083,59.134 -87.567,120.292 -127.092,182.984m331.221,-72.859c-101.983,11.005 -198.541,31.225 -289.716,59.359c40.525,-62.371 83.975,-123.117 130.1,-181.7c137.291,-36.209 277.829,-59.959 420.22,-69.459c-91.225,61.317 -178.562,125.442 -260.604,191.8m-313.208,96.263c86,-28.729 177.087,-50.217 273.204,-63.333c-70.196,58.67 -136.108,118.975 -196.929,180.516c-28.921,-35.708 -60.646,-64.575 -94.667,-87.233l18.392,-29.95Zm-42.621,15.012l1.154,-0.429l-0.483,0.838l-0.671,-0.409Zm-672.567,496.925c162.088,-204.504 373.938,-378.091 636.167,-483.004c7.492,3.542 14.833,7.338 22.138,11.442c-278.117,471.908 23.1,137.387 -368.255,407.837c-81.887,-16.066 -184.12,7.325 -290.05,63.725m-382.679,733.071c-24.104,102.996 -38.229,203.85 -42.429,299.071c-11.204,44.85 -21.021,89.754 -29.492,134.613c-47.983,-159.159 -53.416,-309.588 -29.479,-446.725c29.709,7.225 63.429,11.658 101.4,13.041m27.784,-104.937c-7.734,26.125 -14.842,52.196 -21.321,78.141c-39.025,-1.041 -73.163,-5.45 -102.817,-12.829c1.917,-9.537 4.021,-18.983 6.258,-28.366c37.95,-13.567 77.33,-25.925 117.88,-36.946m7.137,78.321c7.279,-28.73 15.367,-57.584 24.221,-86.538c16.946,-4.271 34.037,-8.296 51.308,-12.129l-44.246,97.571c-10.704,0.596 -21.141,1.004 -31.283,1.096m-35.787,180.008c7.15,-50.138 16.883,-101.267 29.137,-152.933c8.621,-0.05 17.475,-0.192 26.475,-0.521c-20.546,50.608 -39.05,101.816 -55.612,153.454m46.829,615.025l175.612,217.017c-92.025,-49.48 -190.246,-103.759 -294.791,-162.775c37.708,-15.684 77.366,-33.53 119.179,-54.242m-33.096,-69.9c6.196,15.708 12.904,30.858 20.117,45.412c-41.188,20.384 -80.28,37.938 -117.455,53.38l22.23,-252.688c20.662,50.642 45.529,101.963 75.108,153.896m-54.879,-273.583c2.437,45.833 7.496,89.8 15.125,131.466c-32.563,-75.5 -29.35,-58.554 -15.125,-131.466m527.308,492.733c-12.487,3.204 -24.708,6.033 -36.696,8.304c32.121,-29.537 65.229,-58.621 99.267,-87.221l-62.571,78.917Zm1822.86,-832.946c45.021,-11.146 89.117,-20.904 132.346,-29.371l-81.941,118.475l-16.8,-2.525l-33.605,-86.579Zm-672.875,241.188c120.321,-55.13 235.942,-102.259 346.888,-141.996c11.212,8.396 22.517,16.696 34.062,24.862c-94.629,30.229 -197.241,77.546 -306.491,144.809c-24.334,-10.084 -49.184,-19.292 -74.459,-27.675m-96.204,45.329l51.929,-24.779l-0.783,19.329c-17.221,1.662 -34.262,3.483 -51.146,5.45m-171.904,55.571c-38.775,20.312 -78.021,41.458 -117.721,63.3c-12.187,-7.763 -24.358,-16.042 -36.408,-24.73c49.212,-14.654 100.608,-27.57 154.129,-38.57m588.938,-262.834c-107.405,38.988 -219.063,84.804 -335.025,138.046c2.166,-37.187 5.129,-74.7 9.075,-112.383c80.279,-33.742 162.295,-64.592 245.708,-92.659c25.808,22.934 52.529,45.35 80.242,66.996m591.133,-155.083c-17.45,2.592 -35.042,5.462 -52.796,8.537c14.838,-27.016 28.567,-54.47 41.1,-82.12l12.979,-2.046c0.067,25.258 -0.366,50.546 -1.283,75.629m1338.28,521.854c10.683,18.229 20.854,36.704 30.363,55.492c-45.996,-1.309 -89.975,-0.792 -132,1.329c34.491,-16.838 68.475,-35.763 101.637,-56.821m-138.658,-223.083c-99.35,-97.909 -216.446,-174.021 -359.934,-230.992l0,-1.446c193.971,66.404 363.796,109.954 511.621,134.146l11.125,36.542c-55.358,22.491 -109.675,43.079 -162.812,61.75m147.575,184.187c-36.159,-57.75 -78.246,-112.171 -126.188,-162.446c48.867,-17.362 98.617,-36.312 149.288,-56.812c16.012,54.992 31.241,111.204 45.541,168.7c-22.316,17.942 -45.237,34.742 -68.641,50.558m-379.771,1653.25c-10.475,7.875 -21.154,15.621 -31.942,23.242l11.038,-28.729c6.95,2.083 13.891,3.858 20.904,5.487m125.3,-107.354c-30.313,29.463 -62.279,57.733 -95.95,84.621c-13.346,-2.058 -26.629,-4.954 -39.817,-8.6c16.767,-40.613 35.538,-81.758 55.917,-123.379c25.267,19.15 51.975,34.821 79.85,47.358m200.637,-251.267c-50.27,81.963 -110.15,159.367 -179.504,230.121c-31.091,-12.966 -60.696,-29.983 -88.391,-51.525c82.954,-164.425 52.77,-138.3 267.895,-178.596m185.925,-536.02c-19.72,168.416 -72.975,335.954 -158.725,489.55c-41.783,-21.325 -87.312,-39.259 -136.904,-53.175c90.171,-144.659 192.088,-291.509 295.629,-436.375m-131.916,498.183c94.108,-170.104 149.187,-356.846 164.112,-543.117l29.171,-40.5c12.817,123.296 22.313,251.004 28.154,383.467l-76.983,178.167c-46.446,6.095 -94.529,13.4 -144.454,21.983m-205.167,278.562c73,-75.983 135.533,-159.241 187.375,-247.341l99.592,64.983c-55.179,91.746 -113.434,158.525 -172.871,203.871c-39.5,-2.538 -77.75,-9.483 -114.096,-21.513m-105.929,98.705c29.437,-24.588 57.579,-50.2 84.375,-76.809c32.146,11.746 65.7,19.638 100.304,24.054c-61.492,38.1 -123.812,54.396 -184.679,52.755m-1915.52,97.5c-39.079,-15.546 -78.562,-32.03 -118.558,-49.53c48.946,1.755 98.579,1.955 148.462,0.709c-7.908,16.779 -18.004,33.021 -29.904,48.821m163.563,60.325c-44.955,-15.28 -90.588,-31.9 -136.871,-49.863c13.971,-19.3 25.379,-39.433 33.962,-60.246l326.646,-31.483l0.288,6.804c-72.425,41.825 -147.063,86.729 -224.025,134.788m243.775,71.587c-68.159,-16.787 -138.071,-36.825 -209.675,-60.237c65.504,-40.625 129.287,-78.963 191.412,-115.071l18.263,175.308Zm67.645,15.763l-38.433,-8.721l-20.546,-197.909l45.171,-25.766l49.021,20.179l-35.213,212.217Zm286,45.058c-83.133,-7.721 -169.354,-20.638 -258.687,-39.188l33.937,-207.57c103.113,41.566 206.171,80.541 308.805,116.062c-22.384,48.654 -50.321,92.608 -84.055,130.696m471.084,-13.983c-134.254,22.304 -280.046,28.895 -437.084,16.891c30.242,-37.133 55.625,-78.904 76.4,-124.562c120.83,41.162 241.175,77.475 360.684,107.671m431.204,-141.642c-66.558,34.637 -137.708,64.492 -213.425,88.929c56.35,-53.496 109.846,-105.492 159.858,-154.7c18.538,21.533 36.475,43.471 53.567,65.771m112.508,-65.746c-28.283,18.429 -57.504,36.004 -87.741,52.538c-18.646,-24.446 -38.192,-48.542 -58.534,-72.046l86.279,-85.625l83.621,41.262l-23.625,63.871Zm23.154,17.971l84.746,-61.129c86.042,10.571 174.967,-11.021 261.288,-74.65l67.666,-0.888c-119.845,147.204 -250.395,278.284 -389.508,388.267c-18.146,-37.517 -39.075,-75.071 -62.367,-112.196c9.242,-45.375 22.138,-91.921 38.175,-139.404m-94.108,56.983c19.533,-10.754 38.596,-21.983 57.329,-33.541c-8.712,28.041 -16.321,55.704 -22.725,83.008c-11.083,-16.6 -22.654,-33.133 -34.604,-49.467m-300.125,122.375c99.033,-27.896 190.904,-64.779 275.5,-109.129c73.738,100.025 46.2,50.496 37.096,177.558c-109.246,-10.379 -219.733,-27.745 -331.167,-51.104l18.571,-17.325Zm-632.387,52.846c191.504,16.6 366.825,5.917 525.512,-26.812l30.646,7.062c-48.796,44.996 -99.258,90.504 -151.004,135.779c-33.159,12.913 -492.138,-15.366 -532.196,-19.316c48.554,-25.455 90.837,-58.017 127.042,-96.713m-272.313,-40.183c81.442,16.829 160.321,28.933 236.704,36.804c-28.158,27.371 -113.758,89.917 -145.075,94.442c-32.133,-3.646 -63.933,-7.663 -95.375,-12.03l3.746,-119.216Zm-58.446,-12.8l31.117,6.971c-3.15,40.591 -4.521,79.337 -4.333,116.141c-10.455,-40.204 -19.367,-81.391 -26.784,-123.112m-274.5,-77.759c83.984,28.113 165.709,51.659 245.175,70.85c7.571,44.296 16.838,87.975 27.746,130.63c-156.271,-24.292 -301.9,-57.884 -430.5,-100.43c53.567,-35.15 106.108,-68.795 157.579,-101.05m-158.304,-57.558c42.038,16.467 83.592,31.8 124.6,46.046c-51.321,32.35 -103.658,66.108 -157.037,101.308l-78.05,-52.908l110.487,-94.446Zm-203.808,-86.767c59.837,27.442 118.641,52.713 176.491,75.917l-104.837,86.308c-63.963,-57.387 -115.063,-114.029 -154.55,-169.708c27.283,3.033 54.929,5.5 82.896,7.483m-113.35,-54.141l41.083,20.154l-30.808,-3.546l-10.275,-16.608Zm-213.884,-113.829l171.413,92.504c5.842,11.104 12.004,22.187 18.733,33.387c-51.983,-7.462 -102.171,-17.066 -149.912,-28.941c-18.767,-30.896 -32.354,-63.234 -40.234,-96.95m-270.445,-176.505c71.708,53.425 150.712,105.863 237.275,157.138c5.433,36.854 17.145,72.171 34.52,105.937c-120.704,-34.35 -223.837,-84.45 -298.362,-152.637c5.246,-41.771 14.287,-78.475 26.567,-110.438m-45.438,-34.737l22.529,17.45c-12.346,30.454 -21.858,64.871 -28.104,103.658c-29.708,-31.687 -53.583,-67.004 -70.817,-106.175c25.642,-4.446 51.092,-9.446 76.392,-14.933m-104.425,-87.604c24.338,21.883 49.738,43.612 76.279,65.175c-19.433,3.962 -38.975,7.658 -58.612,11c-8.329,-24.054 -14.309,-49.429 -17.667,-76.175m-393.304,-703.063c-2.321,-13.196 -4.404,-26.404 -6.213,-39.658c14.392,1.329 29.163,1.917 44.338,1.687l-38.125,37.971Zm10.033,49.354l-3.571,-16.129c81.03,-83.046 54.942,-67.741 121.667,-81.346l-75.042,119.875l-43.054,-22.4Zm191.238,404.167c-60.884,-82.196 -108.092,-165.975 -142.609,-250.879c4.13,-11.821 8.359,-23.554 12.775,-35.204c96.471,86.866 207.771,174.258 335.471,261.583c-28.246,75.525 -42.454,144.488 -44.4,207.354c-61.846,-59.946 -115.416,-120.996 -161.237,-182.854m-155.871,-211.167c113.046,255.767 315.612,428.73 317.404,432.613c1.979,38.75 8.875,75.025 20.213,108.821c-85.367,13.179 -172.309,19.887 -260.134,17.671c-52.525,-61.58 -102.816,-125.105 -150.746,-190.384c10.805,-124.929 35.392,-250.062 73.263,-368.721m-20.496,-49.708l4.179,10.725c-40.883,119.692 -68.212,246.579 -81.558,373.771l-15.229,-44.133c14.516,-113.663 44.796,-228.946 92.608,-340.363m-32.383,-99.25c5.587,20.588 11.837,41.138 18.783,61.571c-54.092,118.45 -88.354,241.646 -105.017,363.246c-45.02,-65.838 -87.695,-133.25 -127.916,-201.879c54.079,-83.746 118.912,-165.609 192.05,-244.934l22.1,21.996Zm-27.175,-136.892c2.929,22.721 6.6,45.392 11.058,67.93l-4.587,4.854l-95.03,-100.975c27.392,13.179 56.88,22.691 88.559,28.191m11.45,-340.758c-19.3,103.85 -24.992,208.058 -14.704,312.033c-120.309,-24.029 -156.275,-82.77 -216.067,-175.67l230.771,-136.363Zm2160.07,-2073.73c65.366,-18.188 129.758,-32.496 193.079,-43.117c87.871,55.054 174.308,116.625 258.533,185.125c-22.221,9.658 -44.587,19.688 -67.104,29.988c-137.175,-74.013 -239.371,-123.205 -384.508,-171.996m-505.692,181.004c-95.617,53.083 -192.008,114.375 -288.579,184.225c-160.059,1.775 -307.659,19.746 -443.409,51.533c-12.716,-23.596 -26.25,-45.221 -40.6,-65c70.242,-71.271 147.634,-140.862 230.58,-208.187c48.233,-19.979 407.508,-11.317 542.008,37.429m818.304,-267.654c-149.2,14.058 -82.687,31.05 -182.829,-26.988c62.192,8.292 123.075,17.296 182.829,26.988m295.125,27.504c89.167,8.867 174.471,25.95 255.092,50.7l-19.684,5.804c-75.937,-20.217 -154.458,-39.012 -235.408,-56.504m-216.812,-5.329c97.1,-4.521 310.762,53.871 402.358,77.3c-100.954,32.158 -205.35,70.946 -313.033,116.829c-80.042,-65.9 -162.188,-125.488 -245.655,-179.233c52.984,-7.567 105.105,-12.488 156.33,-14.896m519.554,42.479c-144.425,-49.708 -304.421,-74.713 -475.35,-71.617c-118.15,-21.6 -241.388,-40.4 -369.775,-56.083c-42.304,-22.896 -84.834,-44.463 -127.504,-64.617c-86.388,-40.854 -173.384,-76.2 -260.33,-106.4c24.3,-12.346 48.68,-24.512 73.167,-36.387c280.379,-136.167 571.096,-242.479 841.608,-306.554c249.542,96.804 499.617,276.85 738.95,560.958c-131.65,13.479 -272.125,39.754 -420.766,80.7m78.866,60.362l3.821,1.705c-32.596,-9.871 -65.516,-19.546 -99.091,-28.867c30.654,-8.575 67.254,14.958 95.27,27.162m87.009,11.155l-120.942,-55.046c140.196,-36.65 272.758,-59.996 397.129,-71.613c28.409,34.529 56.629,70.634 84.734,108.217c-140.109,-39.575 -233.005,-26.554 -360.921,18.442m70.1,40.141c-12.329,-7.641 -24.788,-15.075 -37.434,-22.287l17.309,-6.034c109.512,-38.154 224.916,-31.7 338.491,7.188l145.355,217.25c-140.538,-72.2 -294.905,-137.871 -463.721,-196.117m436.862,610.729c25.917,83.05 43.154,171.555 50.925,264.913c-97.546,-74.383 -201.041,-149.238 -310.754,-224.513c33.717,-22.4 65.525,-46.875 94.842,-73.57l164.987,33.17Zm-60.496,-153.325c18.809,38.838 35.5,79.221 49.938,121.021c-41.513,-12.283 -84.375,-20.829 -128.117,-25.962c29.084,-29.246 55.338,-60.921 78.179,-95.059m-101.533,-167.995c32.438,43.729 61.529,90.275 87.171,139.445c-27.788,44.109 -61.442,84.125 -99.679,120.192c-72.992,-5.421 -148.071,-1.712 -222.9,9.592c-140.5,-92.484 -290.588,-185.538 -450.342,-278.971c-35.242,-37.629 -71.083,-73.875 -107.421,-108.596c117.35,-55.337 257.942,-113.233 424.604,-173.308c27.405,8.804 54.442,17.808 81.13,26.979c112.341,70.117 209.37,159.233 287.437,264.667m103.708,111.479c-72.125,-133.146 -170.22,-248.084 -290.383,-340.067c135.821,50.9 261.475,106.963 377.554,167.438l-87.171,172.629Zm80.509,188.191c-18.088,-55.575 -39.921,-108.65 -65.334,-159.145l96.509,-188.925l0.562,0.304c102.321,175.15 167.584,340.754 202.7,495.2c-67.65,-68.709 -147.483,-116.813 -234.437,-147.434m58.137,309.092c-6.312,-97.129 -22.566,-189.296 -47.891,-275.817c88.9,34.596 169.354,89.117 235.254,167.388c13.883,74.817 20.65,146.821 21.133,215.962c-121.625,-15.533 -53.708,11.888 -208.496,-107.533m-183.896,1127.58l-9.783,24.433c-42.171,-22.1 -83.817,-44.579 -124.125,-67.72c36.817,-1.155 75.017,-1.13 114.871,0.32c6.642,14.175 13.004,28.484 19.037,42.967m15.646,-41.404l-1.483,4.154l-1.988,-4.371l3.471,0.217Zm23.867,-68.467c-4.55,13.871 -9.25,27.584 -14.038,41.25l-26.666,-1.4c-11.929,-24.429 -24.879,-48.421 -38.7,-71.841c20.891,-14.059 41.454,-28.942 61.508,-44.667c6.121,25.287 12.088,50.837 17.896,76.658m36.104,-121.854c-6.287,23.508 -12.879,46.654 -19.775,69.521l-10.442,-43.488c10.213,-8.47 20.284,-17.145 30.217,-26.033m43.167,-196.242c-25.754,144.755 -15.588,136.78 -80.8,192.35c-13.7,-54.366 -28.204,-107.6 -43.417,-159.725c87.829,-36.32 62.329,-36.87 124.217,-32.625m35.721,-296.27c-5.584,83.241 -14.459,163.4 -26.438,240.516c-67.537,30.963 -47.854,28.309 -156.783,11.275c-31.509,-100.591 -65.796,-196.883 -102.704,-288.937c97.47,9.637 192.954,22.05 285.925,37.146m7.025,-206.755c-0.125,61.138 -1.93,120.792 -5.292,178.955c-97.275,-15.746 -197.308,-28.584 -299.367,-38.392c-15.596,-37.904 -31.571,-75.142 -48.021,-111.629l352.68,-28.934Zm-0.788,-75.754l0.65,48.059l-364.554,30.07l-19.421,-41.487l383.325,-36.642Zm-3.096,-94.791c1.042,22.554 1.829,44.933 2.454,67.133l-394.987,38.579c-45.796,-94.296 -94.5,-183.617 -145.717,-268.096c70.292,-25.212 137.617,-56.604 199.184,-94.566c120.154,82.133 232.908,163.808 338.445,244.87l0.621,12.08Zm30.138,67.295c-0.534,-18.908 -1.246,-37.958 -2.059,-57.129c25.592,19.879 50.88,39.754 75.613,59.584c-24.533,-1.309 -49.079,-2.1 -73.554,-2.455m1.271,74.588l-0.6,-46.875c123.762,1.7 99.77,-4.346 162.916,48.258c-49.329,-2.679 -103.4,-3.175 -162.316,-1.383m-5.363,212.204c3.542,-59.992 5.4,-121.512 5.475,-184.596l199.963,5.488c-5.767,74.066 -18.938,144.362 -38.367,210.671l-167.071,-31.563Zm-25.412,249.671c10.566,-71.4 18.504,-145.342 23.7,-221.858l160.579,30.337c-14.254,44.063 -31.317,86.275 -50.838,126.583c-45.125,22.85 -89.575,44.438 -133.441,64.938m-6.959,44.358l1.871,-11.462c38.513,-17.821 77.592,-36.554 117.104,-56.188c-12.966,23.796 -26.783,46.904 -41.404,69.213c-24.867,0.291 -50.737,-0.254 -77.571,-1.563m-25.791,133.771c7.758,-34.85 14.779,-70.446 21.195,-106.6c21.78,1.1 42.988,1.658 63.588,1.75c-26.138,37.196 -54.558,72.188 -84.783,104.85m-57.33,211.454c16.688,-51.358 31.788,-104.354 45.221,-159.091c47.854,-47.309 91.875,-99.909 130.788,-157.517c123.075,-2.9 223.396,-24.563 303.429,-61.025c-2.946,43.012 -50.608,440.283 -79.858,483.883c-142.534,-32.704 -272.342,-53.225 -390.184,-63.016l-9.396,-43.234Zm-38.241,108.029c5.016,-13.041 9.921,-26.216 14.746,-39.512l10.208,0.775c7.421,35.408 14.467,71.3 21.196,107.646c-36.321,-18.579 -18.959,-1.742 -46.15,-68.909m-1347.78,1137.2l-24.6,6.005l-0.646,-7.542c8.341,0.262 16.766,0.796 25.246,1.537m279.745,-61.137l155.767,-69.613c5.013,13.542 10.225,26.921 15.721,40.159c-57.938,14.162 -118.542,31.458 -181.875,52.083c3.937,-7.492 7.404,-15.025 10.387,-22.629m-160.466,56.487c41.15,-12.675 81.996,-26.62 122.479,-41.8c-3.85,7.267 -8.238,14.467 -13.092,21.58c-26.658,9.133 -53.812,18.85 -81.446,29.175c-9.32,-3.205 -18.629,-6.138 -27.941,-8.955m-658.571,101.55c75.512,-0.879 151.817,-5.325 228.321,-13.541c-44.034,45.925 -81.875,107.087 -111.721,185.537l-90.921,40.334l-35.383,-14.871c-0.504,-67.246 2.771,-133.567 9.704,-197.459m-447.742,-37.875c134.013,24.834 275.392,37.975 419.875,38.038c-6.437,60.171 -9.621,122.417 -9.608,185.512c-121.646,-51.958 -243.313,-106.95 -364.621,-163.679c-13.325,-20.446 -28.625,-40.5 -45.646,-59.871m-152.233,-34.125c112.854,29.834 96.546,7.471 146.662,69.98c-48.95,-23.117 -97.841,-46.471 -146.662,-69.98m-715.913,-475.808c-15.62,-23.696 -29.479,-47.979 -41.608,-72.904c21.971,9.767 43.488,19.162 64.442,28.075c-8.1,15.167 -15.709,30.062 -22.834,44.829m177.409,190.075c-62.729,-50.029 -116.434,-104.942 -159.413,-164.125c9.109,-19.633 19.167,-39.687 30.188,-60.187c206.008,85.995 360.112,129.241 475.083,137.112c-23.65,55.992 -49.771,113.754 -78.475,173.313c-178.637,-26.171 -46.367,47.529 -267.383,-86.113m524.271,253.213l-173.996,-59.83c5.766,-17.97 12.716,-35.741 20.691,-53.229c84.288,29.171 166.267,76.3 233.605,133.429c-27.117,-6.291 -53.925,-13.07 -80.3,-20.37m-182.171,-30.98l375.716,179.475c28.98,25.734 61.467,131.68 38.125,211.255c-77.441,2.275 -154.254,1.158 -228.729,-3.834c-47.471,-21.866 -95.579,-45.162 -144.296,-69.875c-55.525,-111.129 -65.687,-217.566 -40.816,-317.021m-91.975,-38.875c21.562,9.934 43.612,19.488 66.091,28.605c-24.995,96.9 -18.666,200.045 27.925,307.412l-157.654,-86.675c-10.312,-92.175 17.55,-159.233 63.638,-249.342m-47.279,-22.654l22.208,10.846c-45.121,88.217 -72.742,153.113 -68.908,243.167c-81.055,-48.717 -155.234,-98.475 -222.788,-149.121c4.167,-8.779 8.654,-17.121 13.363,-25.046c88.125,-22.354 173.787,-49.979 256.125,-79.846m-81.788,-44.5c15.754,9.221 31.771,18.25 48.179,27.038c-64.225,22.733 -130.312,43.904 -197.916,62.141c38.812,-47.283 89.983,-76.329 149.737,-89.179m-135.971,-92.812c32.142,25.529 66.538,49.812 103.013,72.758c-113.375,34.592 -155.067,117.425 -158.867,120.154c-15.175,3.759 -30.429,7.363 -45.758,10.796c-40.688,-32.321 -78.754,-65 -114.3,-98.021c-1.75,-64.933 10.771,-137.35 40.046,-217.754c55.508,37.388 114.17,74.742 175.866,112.067m-157.416,-158.521c14.875,19.567 30.862,38.604 47.941,57.225c-19.087,-12.433 -37.796,-24.892 -56.166,-37.325l8.225,-19.9Zm-84.963,-145.046c17.6,41.388 39.854,81.254 66.292,119.354c-4.479,9.992 -8.696,19.925 -12.709,29.725c-127.879,-87.766 -239.245,-175.55 -335.229,-262.683l7.654,-18.833c99.15,50.354 190.325,94.45 273.992,132.437m416.483,-973.967c55.78,-48.629 117.45,-97.754 185.292,-147.283c35.704,40.563 67.05,85.725 93.388,135.775l-11.759,5.767c-84.762,-7.304 -173.766,-5.713 -266.921,5.741m-51.625,46.38c82.525,-36.221 186.55,-31.359 269.33,-27.559c-64.63,32.738 -129.588,67.446 -194.234,104.075c-25.4,-23.2 -50.496,-48.637 -75.096,-76.516m-116.979,118.187c29.5,-32.704 61.696,-65.7 96.559,-98.946c22.883,25.942 46.137,49.921 69.7,71.984c-43.45,24.983 -86.717,50.745 -129.655,77.329c-12.779,-16.471 -24.97,-33.275 -36.604,-50.367m-111.733,139.892c27.112,-38.979 57.925,-78.463 92.667,-118.392c10.237,14.758 20.891,29.338 31.97,43.65l-124.637,74.742Zm-120.854,233.575c10.021,-29.663 22.3,-59.788 36.841,-90.267c4.405,20.054 9.146,39.392 14.213,58.021l-51.054,32.246Zm-33.275,250.358c-5.509,-67.387 1.079,-137.962 21.287,-211.192c23.15,-13.141 46.809,-27.62 70.975,-43.458c32.971,109.388 83.046,209.796 157.829,282.375c-46.241,63.196 -85.02,123.204 -116.816,180.1c-29.95,-12.817 -60.996,-26.521 -93.234,-41.162c-21.6,-53.088 -35.291,-108.73 -40.041,-166.663m-11.963,-193c-27.75,117.321 -22.975,232.7 16.167,343.217c-76.696,-35.563 -159.729,-76.125 -249.529,-122.021c24.141,-55.196 51.433,-108.104 81.887,-157.892c47.525,-14.287 98.017,-35.2 151.475,-63.304m57.784,-160.821c-20.167,42.034 -36.092,83.4 -48.005,124.029c-48.479,26.984 -94.462,47.938 -137.845,63.271c44.612,-67.237 120.1,-135.166 185.85,-187.3m298.541,-389.933c-33.875,32.283 -65.216,64.317 -94.175,96.117c-13.954,-21.921 -26.962,-44.313 -39.012,-67.225c44.683,-12.492 88.496,-22.746 131.462,-30.984l1.725,2.092Zm256.554,-212.467c-80.416,58.813 -152.262,117.129 -215.979,174.829l-31.025,5.242c-81.154,-99.454 -197.091,-282.804 -234.291,-428.654c181.179,38.025 353.987,115.05 481.295,248.583m362.25,-268.975l-339.304,252.325c-127.696,-134.9 -300.458,-214.925 -482.246,-255.487c240.963,-44.109 522.342,-74.092 776.071,-58.509c14.634,20.621 29.809,41.196 45.479,61.671m36.63,-28.921l-14.909,11.8c-10.679,-13.945 -21.171,-27.991 -31.341,-42.012c18.337,1.462 36.475,3.137 54.466,5.117l-8.216,25.095Zm-833.971,-594.191c-22.379,16.291 -42.163,32.75 -59.109,49.25c-20.241,-25.579 -46.262,-43.959 -76.691,-55.579c55.475,-37.134 114.287,-71.196 176.491,-101.813c-14.566,35.879 -28.145,71.971 -40.691,108.142m91.721,-58.475c-18.546,10.504 -36.175,21.108 -52.821,31.829c42.279,-115.229 23.012,-96.221 129.387,-137.504c-27.408,35 -52.975,70.241 -76.566,105.675m298.929,-131.829c-89.7,31.537 -173.967,66.816 -247.329,104.208c23.025,-32.221 47.725,-64.25 73.895,-96.054c49.992,-17.588 101.909,-33.079 155.717,-46.404c6.133,12.229 12.025,24.983 17.717,38.25m313.462,-89.305c-97.029,21.53 -194.675,48.821 -287.171,80.23c-5.233,-12.346 -10.641,-24.309 -16.22,-35.83c95.187,-21.945 196.229,-37.033 303.391,-44.4m-277.05,105.388c109.067,-36.871 225.529,-68.033 339.575,-90.538c-100.408,75.375 -197.612,152.663 -290.754,231.584l-48.821,-141.046Zm-403.546,191.033c11.255,-8.041 23.121,-16.037 35.563,-24.004c-25.629,42.238 -48.45,84.733 -68.058,127.342c9.916,-34.479 20.712,-68.975 32.495,-103.338m-66.875,55.817c8.409,-8.496 17.617,-16.929 27.613,-25.363c-5.45,16.805 -10.592,33.592 -15.55,50.446c-3.567,-8.891 -7.604,-17.262 -12.063,-25.083m-468.095,548.096c-22.188,35.558 -41.909,69.541 -59.45,102.208c-65.242,14.183 -123.559,23.229 -175.488,27.688l47.625,-102.68l187.313,-27.216Zm-24.805,94.337c17.334,-31.029 36.73,-63.387 58.33,-97.121c100.15,-7.337 201.5,-6.208 300.229,4.688l-358.559,92.433Zm1308.43,586.75c92.416,-20.346 176.096,-40.716 245.629,-58.396c12.142,7.634 24.104,15.396 35.942,23.459c-3.455,16.625 -8.55,35.712 -15.442,57.516c-85.792,33.442 -175.046,52.555 -265.129,53.546c-0.496,-25.079 -0.875,-50.471 -1,-76.125m-112.096,23.663c28.758,-5.796 56.937,-11.709 84.421,-17.654c0.179,23.216 0.533,46.241 0.987,69.025c-28.216,-12.93 -56.079,-24.563 -83.45,-34.863l-1.958,-16.508Zm-664.538,87.296c60.734,-2.092 123.113,-6.538 186.042,-12.771c-78.029,46.946 -157.696,96.975 -238.925,149.946c-26.554,-100.721 -32.817,-83.134 52.883,-137.175m-464.287,-55.905c96.571,38.23 219.875,54.98 356.008,57.088l2.221,14.579l-332.433,284.658c-27.463,2.45 -53.575,2.188 -78.246,-0.608c-11.879,-111.929 -4.713,-223.979 18.442,-335.737l34.008,-19.98Zm-121.071,-72.479c19.95,18.225 42.988,34.15 68.567,48.059l-6.079,26.883l-253.113,149.75c-63.133,-102.138 -78.146,-220.767 -79.3,-359.325c-1.017,-124.004 53.988,-256.004 101.483,-371.017c50.93,-3.479 107.734,-11.416 170.871,-24.191c-132.783,262.358 -112.958,429.033 -2.429,529.841m75.529,20.421c-166.321,-95.754 -187.858,-276.45 -39.525,-557.442l371.238,-95.337c-147.196,199.25 -271.009,420.687 -331.713,652.779m43.079,21.542c-6.112,-2.629 -12.108,-5.396 -17.945,-8.242c29.65,-115.583 76.162,-231.65 137.133,-347.35c57.887,-109.862 128.817,-219.287 210.717,-327.708l34.991,-7.242c0.342,11.738 0.825,23.471 1.475,35.146c-22.583,186.942 -31.129,350.504 -28.021,492.737c-108.329,41.692 -221.183,95.525 -338.35,162.659m354.7,60.921c-121.883,-2.121 -232.77,-16.284 -321.72,-47.855c105.791,-59.5 207.875,-108.025 306.212,-146.416c2.383,70.054 7.629,134.696 15.508,194.271m56.388,0.141l-28.754,0.1c-8.409,-62.371 -13.879,-130.558 -16.054,-204.862c41.658,-15.575 82.625,-29.275 122.95,-41.275c14.337,27.612 30.05,54.571 47.116,80.846c-49.112,55.895 -90.716,111 -125.258,165.191m245.183,-14.862c-47.637,4.879 -94.933,8.737 -141.387,11.291l103.25,-52.72c12.229,14.075 24.941,27.883 38.137,41.429m52.188,-5.738l-16.829,1.929c-14.971,-14.679 -29.259,-29.783 -43.042,-45.212c52.096,-11.763 106.875,-17.638 164.267,-17.067c-34.509,19.542 -69.246,39.646 -104.396,60.35m507.137,-87.212l-55.121,11.758c18.559,-14.529 36.959,-28.471 55.196,-41.892l-0.075,30.134Zm240.004,-56.321c-62.154,15.604 -133.975,32.879 -212.279,50.25l0.254,-44.283c32.509,-23.142 64.488,-44.513 95.896,-64.238l116.129,58.271Zm72.692,-18.596c-49.971,12.904 -27.787,12.738 -131.012,-43.754c58.216,-2.463 120.791,-4.721 131.012,43.754m587.863,67.375c60.441,14.45 117.433,29.438 171.054,44.933c1.575,48.805 -5.396,100.925 -21.538,154.825c-32.3,107.963 -101.183,223.05 -211.85,334.505l-37.629,5.854c-18.046,-36.129 -37.125,-71.45 -57.242,-105.863c4.563,-48.387 8.742,-102.341 12.475,-162.35c60.134,-76.962 108.28,-169.366 144.73,-271.904m-130.955,-29.287c35.65,7.47 70.284,15.075 103.85,22.887c-30.15,84.083 -68.3,160.996 -114.604,227.558c4.163,-74.716 7.75,-157.912 10.754,-250.445m-26.591,-33.684c-49.225,-9.996 -100.342,-19.671 -153.492,-28.929c22.558,-18.475 44.525,-37.821 65.879,-57.946c28.838,13.663 58.504,26.525 88.946,38.504l-1.333,48.371Zm139.458,30.417c-36.142,-8.479 -73.446,-16.738 -111.987,-24.8l1.258,-43.446c38.758,14.438 78.775,27.508 120.062,39.042l-9.333,29.204Zm187.217,48.617c-50.513,-14.525 -103.8,-28.575 -160.15,-42.175l9.041,-28.359c46.634,12.129 94.905,22.354 144.767,30.454c2.846,13.017 4.917,26.43 6.342,40.08m402.712,1044.15c99.1,-49.675 186.275,-112.209 251.359,-182.896l12.091,106.679c-77.316,56.25 -158.304,105.804 -241.833,149.125c-8.075,-23.967 -15.292,-48.3 -21.617,-72.908m-142.037,59.433l116.612,-47.104c6.5,24.766 13.892,49.196 22.088,73.266l-136.259,61.913c6.005,-28.717 5.463,-58.154 -2.441,-88.075m-328.384,61.237c100.484,-2.854 203.213,-21.35 300.734,-52.145c7.7,31.558 6.3,62.395 -3.109,92.279c-233.362,91.021 -158.333,55.662 -284.858,52.466l-12.767,-92.6Zm-628.816,-708.037l1.625,-25.767l14.121,23.225l-15.746,2.542Zm5.562,180.633c-6.033,-46.962 -8.354,-97.737 -6.741,-152.466c10.791,-1.475 21.445,-3.225 31.962,-5.255l70.283,124.03c-32.204,10.487 -64.058,21.741 -95.504,33.691m43.342,170.892c-17.358,-42.825 -30.65,-90.358 -39.242,-142.838c34.663,-13.258 69.879,-25.654 105.475,-37.225c24.042,41.667 46.892,78.625 68.734,106.246c-42.163,25.329 -87.084,50 -134.967,73.817m-71.838,-415.842c-2.354,23.184 -4.05,45.696 -5.17,67.659c-73.675,7.033 -154.371,0.541 -242.23,-21.617c49.938,-55.4 94.363,-117.45 130.8,-183.808c40.717,32.283 79.692,81.891 116.6,137.766m220.571,-1990c-7.108,-30.45 -14.987,-59.85 -23.458,-88.225c48.783,39.7 93.5,87.325 133.987,141.279l-110.529,-53.054Zm13.071,60.938l-6.162,-30.175c43.6,13.525 86.35,35.154 110.987,71.516c-32.383,-15.279 -67.321,-29.108 -104.825,-41.341m19.529,121.35c-3.962,-30.763 -8.508,-60.709 -13.625,-89.792c31.284,10.862 60.604,22.858 88.088,35.942c-25.767,17.679 -50.563,35.587 -74.463,53.85m16.792,207.833c-2.263,-61.275 -6.646,-119.85 -12.929,-175.817c31.266,-24.425 64.3,-48.271 99.008,-71.629l0.217,0.113c18.579,77.495 -34.254,173.762 -86.296,247.333m-48.004,684.404l4.775,-30.542c9.166,7.325 17.991,14.946 26.462,22.784l-31.237,7.758Zm-20.221,117.946c5.487,-29.742 10.567,-59.071 15.379,-88.1c19.688,-5.029 39.421,-9.929 59.208,-14.679c19.396,20.662 36.7,42.962 51.717,67.129c-41.354,10.733 -83.467,22.658 -126.304,35.65m-15.008,78.042l9.304,-47.584c49.762,-15.408 98.491,-29.096 146.254,-41.379c12.654,23.85 23.217,49.325 31.483,76.529c-56.883,-4.416 -119.446,-0.658 -187.041,12.434m-12.055,58.804l6.159,-29.517c73.216,-15.187 140.321,-19.075 200.571,-13.258c1.566,6.5 3,13.133 4.266,19.85c-27.075,32 -55.725,62.762 -85.712,91.908c-43.563,-21.283 -85.279,-44.387 -125.284,-68.983m-32.312,144.129c9.237,-39.025 17.958,-77.479 26.175,-115.404c35.283,21.425 71.937,41.746 109.958,60.641c-24.408,22.659 -49.679,44.275 -75.637,64.655l-60.496,-9.892Zm-15.808,64.925l9.308,-37.9l36.654,5.892c-15.104,11.062 -30.404,21.783 -45.962,32.008m-28.68,111.112c27.55,-105.375 -3.233,-47.945 112.309,-136.791c63.371,10.816 123.929,22.096 181.75,33.821c-3.417,111.783 -7.496,209.637 -12.204,294.966c-18.025,22.609 -37.109,43.792 -57.28,63.375c-65.937,-94.958 -140.816,-181.041 -224.575,-255.371m-12.675,46.813l4.588,-16.817c78.867,71.538 149.604,153.9 212.162,244.375c-67.762,59.954 -145.845,101.65 -234.45,122.096c-12.641,-21.283 -25.579,-42.329 -38.812,-62.675c9.333,-86.75 27.737,-182.179 56.512,-286.979m-18.554,-37.304l-61.758,288.954c-34.15,-48.754 -70.271,-91.417 -108.329,-120.546c77.887,-194.062 45.133,-161.712 131.354,-200.458c13.079,10.4 26.046,21.079 38.733,32.05m16.246,-61.288l-8.333,31.663l-19.609,-16.246c9.359,-5 18.667,-10.146 27.942,-15.417m23.633,-93.791c-16.308,65.429 -0.787,51.945 -75.375,90.391c-13.845,-10.658 -27.862,-20.996 -42.15,-31.033c1.521,-10.154 2.413,-19.542 2.63,-28.138l114.895,-31.22Zm37.021,-161.355c-9.233,43.042 -19.166,86.759 -29.771,131.242l-124.191,33.179c-13.271,-67.937 -94.104,-67.212 -163.717,-64.062c100.217,-58.117 194.2,-98.779 280.838,-124.434c12.129,8.155 24.408,16.163 36.841,24.075m22.467,-110.133l-8.75,44.375c-14.913,3.404 -30.075,7.329 -45.454,11.646c-12.309,-8.458 -24.471,-17.071 -36.438,-25.804c30.596,-10.659 60.784,-20.725 90.642,-30.217m21.817,-120.483c-4.992,29.579 -10.3,59.512 -15.963,89.75c-40.4,12.762 -81.421,26.379 -123.1,41.096c-27.875,-21.334 -54.812,-43.384 -80.783,-66.013c72.358,-23.687 145.708,-45.275 219.846,-64.833m9.504,-1089.3l6.221,28.975c-69.367,-20.342 -147.105,-35.484 -233.73,-44.571l227.509,15.596Zm-204.929,-494.9c-20.496,-22.517 -41.913,-43.18 -64.175,-61.963l12.112,-7.225c228.833,8.725 444.338,25.742 646.892,50.379c33.837,18.404 67.562,37.709 101.016,57.992c-67.041,12.404 -135.279,28.954 -204.495,49.742c-163.984,-50.871 -328.396,-79.58 -491.35,-88.925m145.716,225.883c-34.504,-75.446 -74.912,-140.892 -120.346,-196.454c139.017,9.816 278.971,34.008 418.759,74.333c-97.929,32.042 -197.659,72.542 -298.413,122.121m44.363,112.233c-10.271,-30.237 -21.334,-59.208 -33.159,-86.883c113.134,-55.704 224.813,-99.896 334.138,-133.296c47.458,0.2 323.571,131.267 400.329,172.692l-494.537,269.712c-58.942,-89.512 -128.021,-165.396 -206.771,-222.225m-23.521,17.104l31.433,109.892c-191.846,-39.262 -292.825,5.896 -406.312,4.179c91.846,-64.591 183.375,-121.462 274.166,-170.841c35.159,15.37 68.759,34.445 100.713,56.77m-34.479,-91.554c6.729,15.775 13.171,32.009 19.383,48.671c-17.896,-11.062 -36.212,-21.175 -55.033,-30.242l35.65,-18.429Zm-144.946,-236.525c50.975,57.859 95.983,128.217 133.779,211.154c-18.779,9.496 -37.642,19.313 -56.512,29.446c-145.796,-59.979 -394.055,-62.316 -534.571,-51.433c83.721,-65.925 172.646,-129.475 265.346,-190.133c63.687,-2.605 127.725,-2.375 191.958,0.966m-76.354,-73.962c16.946,13.879 33.391,28.837 49.3,44.916c-39.988,-1.487 -79.929,-1.904 -119.742,-1.104c23.267,-14.796 46.758,-29.4 70.442,-43.812m-23.354,-52.175c-85.888,-59.254 -182.217,-93.354 -285.342,-102.45c41.654,-37.109 84.558,-72.454 128.55,-105.817c135.596,20.029 274.558,51.563 414.171,96.188c-69.138,36.287 -137.263,74.345 -204.013,113.97l-53.366,-1.891Zm-9.155,27.383l9.255,6.654c-33.959,20.85 -67.588,42.063 -100.684,63.65c-148.083,6.571 -294.283,28.529 -437.221,63.834c29.855,-36.488 60.755,-72.113 92.634,-106.667c150.341,-27.054 274.825,-32.4 436.016,-27.471m-304.775,-103.937c93.063,4.216 180.659,29.183 259.98,75.108c-135.775,-3.483 -220.825,-7.65 -357.467,20.433l97.487,-95.541Zm-1098.22,672.466c-63.784,84.809 -195.063,208.359 -302.1,341.138c-132.396,164.108 -253.1,342.591 -356.65,529.371c-18.342,-117.896 51.904,-283.067 171.687,-448.03c98.171,-118.987 344.067,-322.875 487.063,-422.479m104.275,-125.283c-259.434,127.883 -439.517,311.237 -617.705,535.454c121.325,-226.85 281.192,-451.583 468.646,-658.596c193.509,-213.679 416.304,-408.346 656.313,-566.841c90.091,-10.946 185.191,-16.663 283.95,-16.284c103.666,0.354 211.325,7.379 321.471,21.988c-189.063,147.279 -70.763,97.521 -216.967,112.216c-327.267,32.884 -648.004,299.567 -895.708,572.063m65.916,-29.875c255.892,-265.571 557.325,-512.088 888.046,-517.854l-105.996,107.087c-247.75,61.2 -504.721,201.967 -748.316,397.509c-11.217,4.195 -22.496,8.583 -33.734,13.258m-291.991,624.462c18.087,31.067 43.562,58.95 75.67,84.1c-92.429,109.284 -169.925,229.096 -233.658,354.8c-19.287,3.988 -38.362,8.317 -57.262,12.88c50.954,-156.821 123.291,-310.35 215.25,-451.78m-14.675,-29.833l0.387,0.992c-100.658,151.954 -179.092,318.733 -232.546,488.566c-40.871,10.738 -80.737,22.775 -119.141,36.034c58.383,-212.904 190.183,-398.95 351.3,-525.592m43.508,-295.592c-56.821,106.909 -71.946,194.83 -52.742,267.755c-174.512,134.287 -315.625,335.229 -373.854,564.758c-18.262,6.804 -36.221,13.817 -53.779,21.121c-37.329,-21.896 -61.892,-51.842 -75.367,-87.859c150.304,-276.304 340.679,-538.712 555.742,-765.775m-27.013,248.613c-20.308,-98.829 47.421,-258.292 114.138,-337.246c34.45,-40.746 200.858,-192.358 254.696,-210.033c115.904,-37.429 228.525,-45.429 327.271,-11.163c-454.73,192.088 -588.309,482.346 -696.105,558.442m92.1,139.675c-33.616,-26.592 -59.183,-56.604 -75.529,-90.613c11.688,-17.287 23.675,-34.454 36.004,-51.4c107.85,-69.508 216.109,-105.041 301.338,-98.358c-97.729,71.283 -184.788,152.246 -261.813,240.371m423.596,182.804l33.971,6.3c-14.604,16.6 -28.992,33.263 -43.117,49.913l9.146,-56.213Zm-253.212,-65.008c59.041,20.683 125.562,38.425 198.221,53.925c-17.792,159.316 11.758,105.916 -45.467,179.933c-103.733,-13.783 -210.704,-16.662 -316.533,-10.175c45.566,-68.9 99.883,-143.308 163.779,-223.683m-121.5,-52.846c28.396,15.542 59.916,29.821 94.296,42.925c-66.955,84.875 -123.484,163.387 -170.367,236.017c-64.254,5.158 -127.904,13.691 -189.996,25.308c61.125,-117.292 134.596,-229.079 221.492,-331.492c13.879,9.488 28.725,18.529 44.575,27.242m112.396,20.129l-138.696,-68.554c81.212,-92.533 173.721,-176.975 278.316,-250.433c34.8,9.325 64.075,27.925 85.596,56.645c-85.075,93.434 -159.904,180.784 -225.216,262.342m210.625,59.054c-66.875,-14.3 -128.292,-30.541 -183.192,-49.25c62.142,-77.075 132.917,-159.512 212.908,-247.625c8.017,15.8 14.225,33.834 18.379,54.167c-21.612,81.15 -37.779,162.308 -48.095,242.708m107.212,20.713c-17.242,-2.996 -34.208,-6.104 -50.912,-9.284c4.816,-27.862 9.841,-56.133 15.179,-84.87c8.383,-45.1 11.616,-85.359 10.287,-120.955c29.859,-78.779 71.134,-157.333 122.213,-234.941c82.054,-45.996 182.183,-89.454 290.562,-127.417l52.579,151.142c-161.075,137.908 -309.412,280.616 -439.908,426.325m692.317,81.525c-238.679,-22.442 -465.659,-44.084 -659.988,-76.096c124.671,-137.9 265.463,-273.117 417.929,-404.133c49.759,131.004 127.155,304.283 242.059,480.229m2002.26,684.833c10.788,18.304 20.704,37.188 29.734,56.617c-18.934,-16.279 -36.821,-32.984 -53.517,-50.163l23.783,-6.454Zm-140.508,-170.904c48.537,44.15 90.687,92.725 125.358,146.296l-29.933,8.125c-42,-47.396 -74.829,-98.504 -95.425,-154.421m-573.675,-289.638c54.646,15.955 107.658,33.275 158.558,52.225c-51.879,-4.141 -105.625,-5.916 -161.429,-5.195c0.633,-15.38 1.575,-31.075 2.871,-47.03m-109.504,-29.641c27.816,6.962 55.25,14.279 82.312,21.875c-1.533,18.791 -2.704,37.296 -3.429,55.421c-73.9,2.033 -151.208,8.47 -231.879,19.608c0.879,-25.258 1.258,-50.596 1.171,-76.033c50.508,-7.788 101.141,-14.725 151.825,-20.871m-152.817,-34.634c25.779,5.309 51.283,10.8 76.608,16.5c-25.325,3.48 -50.662,7.138 -75.937,11.05l-0.671,-27.55Zm-791.783,-109.862c124.233,12.267 249.721,25.7 373.787,41.767c-3.846,32.625 -8.15,65.7 -12.912,99.404c-106.009,-71.184 -238.892,-110.754 -371.679,-132.271l10.804,-8.9Zm-56.817,-5.538l18.046,1.713l-8.813,7.25l-11.912,-1.588l2.679,-7.375Zm-121.629,-11.57l92.533,8.775l-2.429,6.654c-27.8,-3.1 -56.017,-5.625 -84.592,-7.571l-5.512,-7.858Zm-41.013,-3.875l5.2,0.495l6.25,9.196c-259.541,-13.271 -544.62,18.975 -788.054,65.138c-12.029,-66.7 -10.721,-53.342 80.225,-155.675c203.888,34.604 443.929,57.158 696.379,80.846m143.592,-14.25l-122.783,-11.634c-123.142,-184.312 -204.284,-367.462 -255.084,-502.604l342.217,-270.558c90.475,-38.396 428.767,34.654 475.883,49.3c7.121,38.291 13.192,78.079 18.175,119.379c-233.087,184.875 -374.17,396.917 -458.408,616.117m67.296,6.566l-38.05,-3.733c81.471,-208.383 215.408,-409.704 432.867,-586.221c6.3,60.617 10.375,124.346 11.962,191.233c-83.575,108.196 -215.354,239.921 -406.779,398.721m385.508,42.875c-115.187,-14.896 -231.596,-27.55 -347.054,-39.087c166.483,-139.754 286.896,-258.767 369,-359.338c1.004,122.592 -5.992,255.396 -21.946,398.425m384.367,61.163c-115.796,-22.734 -235.588,-41.467 -356.938,-57.567c17.571,-157.683 24.388,-303.125 21.655,-436.45c2.312,-7.05 126.279,-150.075 116.566,-274.183c7.288,4.408 14.413,8.891 21.409,13.504c90.183,161.733 151.016,359.358 180.52,565.008l16.788,189.688Zm185.471,41c-51.004,-12.704 -103.075,-24.363 -156.059,-35.159c-0.179,-3.304 48.771,-153.466 51.275,-278.041c3.996,-198.134 -71.845,-381.05 -258.395,-503.746c-8.005,-14.046 -16.192,-27.85 -24.638,-41.375l510.042,-276.608c47.946,26.012 95.137,52.004 141.571,77.966c-691.775,356.221 -449.088,633.288 40.445,650.634c-152.187,133.262 -197.658,236.537 -217.858,396.683c-28.812,2.937 -57.608,6.162 -86.383,9.646m82.791,21.762l-8.308,-2.283l8.654,-0.917l-0.346,3.2Zm287.809,100.092c-81.192,-35.292 -168.671,-65.788 -260.729,-92.421l1.47,-13.687c132.996,-12.971 265.988,-20.446 397.68,-22.734c-52.238,72.754 -11.521,142.796 119.658,192.429l-0.063,0.788c-79.108,-28.754 -165.091,-50.596 -258.016,-64.375m464.412,363.829c-134.187,-213.867 -172.325,-120.942 -178.254,-258.917c127.721,50.459 241.554,126.125 330.35,211.188c-51.737,17.646 -102.421,33.567 -152.096,47.729m62.309,126.542c-13.234,-35.734 -29.067,-69.721 -47.509,-102.004c52.029,-14.963 105.054,-31.713 159.317,-50.471c50.437,51.512 94.367,107.671 131.767,167.462c-40.146,25.529 -81.55,47.892 -123.638,67.004c-42.379,-26.262 -82.675,-53.491 -119.937,-81.991m30.633,107.466c-4.279,-20.829 -9.3,-41.195 -15.113,-60.995c23.521,16.75 48.034,33.07 73.263,49.033l-58.15,11.962Zm-431.358,1102.49c-29.959,18.275 -61.071,34.483 -93.142,48.817c-4.446,-9.129 -8.788,-18.384 -13.042,-27.721c36.5,-8.296 71.867,-15.279 106.184,-21.096m120.587,-90.562c-89.267,81.8 -64.858,45.92 -237.983,85.862c-6.379,-15.212 -12.45,-30.629 -18.167,-46.225c81.692,-42.117 160.925,-90.158 236.821,-144.367c5.346,36.988 11.875,71.888 19.329,104.73m202.067,-290.921c-45.996,108.066 -106.713,196.9 -178.646,268.579c-6.758,-31.675 -12.563,-65.275 -17.35,-100.838c68.425,-50.662 133.987,-106.491 195.996,-167.741m-214.979,339.079c6.866,-5.663 13.662,-11.471 20.366,-17.375l4.042,15.167l-24.408,2.208Zm-188.321,115.95c181.396,-81.283 80.658,-80.163 220.562,-91.008c32.729,107.733 78.196,189.912 133.163,250.508l-119.829,119.117c-91.388,-62.563 -172.567,-161.346 -233.896,-278.617m-654.992,49.287c-12.675,-1.637 -25.4,-3.429 -38.058,-5.316c39.241,-16.525 81.066,-25.046 124.612,-26.584l1.204,13.867c-29.154,6.617 -58.458,12.625 -87.758,18.033m187.242,12.917c-23.054,-0.175 -46.254,-0.887 -69.55,-2.133l-0.484,-7.242c86.134,-20.483 73.409,-29.508 128.121,-13.775c-19.137,7.454 -38.533,15.125 -58.087,23.15m115.008,-4.05c-11.875,0.913 -23.837,1.7 -35.837,2.296l35.837,-2.296Zm304.429,-67.779c-38.696,15.279 -225.904,71.092 -248.929,60.896l28.425,-34.188c75.729,-25.716 147.675,-46.6 215.825,-63.071c4.838,10.85 9.788,21.58 15.021,32.184l-10.342,4.179Zm-202.471,83.375l225.271,-62.779c62.459,120.041 145.579,221.758 239.488,287.454l-81.004,80.367c-112.546,-125.463 -247.117,-234.546 -383.755,-305.042m-80.558,10.271c10.683,-0.988 21.338,-2.129 31.9,-3.425c145.85,67.487 292.025,182.929 412.625,317.712c-61.883,60.913 -129.225,126.167 -200.621,193.288c-30.262,8.366 -61.241,15.921 -92.862,22.554c-137.417,-32.425 -276.154,-73.408 -415.509,-120.792c34.696,-88.404 53.275,-177.558 59.196,-283.287c82.471,-37.817 152.525,-80.163 205.271,-126.05m-131.167,5.858c27.8,0.075 55.438,-0.625 82.859,-2.187c-43.284,32.741 -95.838,63.429 -155.6,91.67c0.554,-19.416 0.671,-39.054 0.366,-58.9c24.434,-10.62 48.538,-20.845 72.375,-30.583m-73.358,-2.046l6.238,0.292l-6.105,2.633l-0.133,-2.925Zm-118.383,-10.566c30.287,3.8 60.462,6.754 90.575,8.879l0.596,16.521c-105.717,46.52 -217.65,101 -336.092,164.2c32.729,-74.513 73.75,-130.484 120.837,-170.296c41.38,-5.334 82.767,-11.746 124.084,-19.304m-982.275,-451.55l-1.625,-1.434c102.579,-75.779 117.616,-236.004 119.079,-389.358c14.462,-13.258 28.575,-27.063 42.342,-41.35c95.237,25.687 182.687,33.704 262.558,26.617c-1.625,57.404 1.067,110.616 7.642,159.766c-154.021,60.971 -306.792,142.979 -429.996,245.759m100.229,77.52c-27.163,-19.379 -53.404,-39.266 -78.525,-59.65c118.571,-97.854 265.054,-176.566 412.612,-235.525c9.017,53.13 22.671,101.296 40.425,144.838c-138.495,66.558 -236.854,94.142 -374.512,150.337m480.825,248.338c-164.238,-58.742 -319.788,-137.733 -453.721,-229.413c133.079,-53.595 223.242,-78.904 358.408,-143.841c37.617,81.129 90.142,144.908 153.021,193.462l-57.708,179.792Zm178.587,54.854c-51.27,-13.146 -102.17,-28.437 -152.312,-45.633l54.317,-172.338c113.145,77.875 252.441,108.709 390.695,108.85l12.863,92.267c-60.671,2.158 -118.2,16.862 -170.396,46.367c-45.137,-8.1 -90.308,-17.988 -135.167,-29.513m-158.137,-18.379l259.471,69.687c-5.554,4.05 -11.063,8.25 -16.484,12.725c-86.854,10.755 -173.6,16.496 -259.312,17.625c4.354,-34.241 9.817,-67.654 16.325,-100.037m-504.717,-253.392c140.096,97.979 304.534,182.321 478.371,244.209c-7.237,35.37 -13.196,71.933 -17.896,109.4c-157.629,0.179 -311.441,-15.446 -455.954,-44.996c-74.954,-73.371 -173.175,-134.371 -274.65,-170.096c5.642,-10.804 11.721,-21.575 18.225,-32.246l251.904,-106.271Zm-96.529,-72.871c22.45,18.309 45.783,36.296 69.9,53.859l-197.637,83.683c34.983,-48.312 78.091,-94.325 127.737,-137.542m-290.225,-680.291l2.529,-7.163l2.729,1.842l-5.258,5.321Zm75.225,408.575c-75.796,-116.475 -111.012,-237.559 -89.625,-353.825c13.942,-14.642 28.375,-29.45 43.063,-44.346c75.85,50.292 148.291,91.587 217.329,124.683c-11.359,72.721 -28.363,149.759 -51.629,231.388l-119.138,42.1Zm74.496,98.396c-21.004,-24.334 -40.371,-48.942 -57.863,-73.875l92.205,-31.484c-10.35,34.354 -21.792,69.434 -34.342,105.359m117.196,117.375c-34.617,-30.43 -66.775,-61.709 -96.1,-93.688c17.654,-49.683 33.196,-97.879 46.85,-144.642c55.971,-27.954 110.566,-64.454 161.758,-107.82c-3.008,137.158 -18.779,280.366 -112.508,346.15m-2.959,34.025l4.75,4.05c-212.762,186.995 -59.754,142.279 -239.495,205.12c29.133,-60.812 55.6,-119.779 79.591,-176.962c64.146,0.95 115,-10.267 155.154,-32.208m-103.75,-98.5c25.38,26.983 52.709,53.504 81.805,79.35c-32.817,16.358 -73.163,25.337 -122.68,26.058c14.68,-35.879 28.2,-70.971 40.875,-105.408m-97.57,-120.338c22.533,32.946 48.158,65.446 76.529,97.308c-15.021,41.555 -31.584,84.175 -49.629,127.867c-111.255,-5.275 -263.971,-47.612 -472.838,-135.329c30.583,-54.383 67.717,-111.792 111.95,-172.279c95.25,81.041 212.688,105.408 333.988,82.433m-109.738,-350.187c-8.958,107.975 25.742,218.454 93.092,324.966c-110.329,18.096 -214.746,-5.562 -300.792,-79.541c57.658,-76.809 126.554,-158.542 207.7,-245.425m26.133,-112.75c-8.379,21.537 -14.808,43.279 -19.329,65.175c-92.696,97.375 -170.575,188.695 -234.85,274.283c-71.408,-70.55 -119.15,-169.204 -150.421,-275.629c92.45,-60.425 182.846,-116.979 271.134,-169.659l133.466,105.83Zm435.384,-579.121c56.729,-52.009 113.533,-93.425 169.987,-125.25c15.7,15.646 31.767,31.104 48.246,46.354c-74.075,25.237 -147.062,52.692 -218.667,82.412l0.434,-3.516Zm-128.892,137.046c41.233,-50.155 52.6,-70.855 95.667,-89.563c-3.621,37.133 -6.3,74.079 -8.342,110.704c-28.5,-8.141 -57.633,-15.2 -87.325,-21.141m-46.637,59.433c8.941,-11.95 17.945,-23.633 26.937,-34.975c24.258,4.521 48.121,9.808 71.642,15.825c-29.759,14.108 -59.779,28.742 -90.104,43.85c-2.734,-8.342 -5.555,-16.571 -8.475,-24.7m-110.867,164.304c50.504,-82.642 31.987,-63.896 101.787,-99.75c9.58,34.167 17.221,70.079 22.8,107.725c-78.208,15.158 -32.795,11.021 -124.587,-7.975m-106.9,192.108c22.504,-44.295 45.212,-86.358 68.025,-126.3c55.583,-9.508 26.004,-9.687 84.708,10.005c-48.808,43.058 -98.375,89.816 -148.808,140.504l-11.708,-7.95c2.462,-5.438 5.041,-10.846 7.783,-16.259m32.867,-120.533l-63.792,120.65l-119.671,-94.504l183.463,-26.146Zm21.387,-37.462l-4.025,6.97c-46.292,7.671 -93.142,14.792 -140.029,21.134c103.454,-59.754 83.271,-59.475 144.054,-28.104m47.383,-78.221c-7.975,12.608 -15.937,25.475 -23.887,38.604c-12.471,-2.146 -24.829,-4.05 -37.133,-5.663l61.02,-32.941Zm84.434,-124.017c-10.975,14.921 -21.938,30.275 -32.884,46.075c-73.341,13.779 -142.758,31.029 -208.383,51.4c-9.371,-7.346 -18.654,-14.987 -27.908,-22.9c75.521,-42.546 151.416,-82.542 226.766,-119.712l24.55,2.541c6.338,13.829 12.305,28.079 17.859,42.596m84.133,-105.308c-12.279,14.133 -24.546,28.775 -36.779,43.966c-14.275,-2.454 -28.663,-4.612 -43.167,-6.541c26.763,-12.817 53.421,-25.325 79.946,-37.425m96.533,-100.434c-88.033,81.93 -50.812,46.688 -191.058,114.121c-27.112,-51.508 -59.4,-98.079 -96.087,-139.9l337.504,-251.208l3.316,4.154c-25.391,90.904 -42.462,182.308 -53.675,272.833m176.442,-132.612c-48.054,27.725 -96.242,62.154 -144.421,103.783c10.134,-72.108 24.217,-144.654 43.509,-216.929c31.545,38.404 65.187,76.292 100.912,113.146m419.367,-58.675c18.608,2.796 37.037,6.467 55.296,10.908l-35.075,8.129c-6.555,-6.512 -13.296,-12.854 -20.221,-19.037m-291.463,29.35c76.796,-27.596 152.692,-38.508 226.629,-35.546l-7.516,48.196c-83.975,21.867 -167.017,46.287 -248.721,73.383c-18.054,-16.412 -35.658,-33.096 -52.788,-50.029c27.592,-14.212 55.067,-26.158 82.396,-36.004m198.554,-63.767c-104.458,0.775 -205.616,28.5 -301.37,79.225c-41.838,-42.8 -80.775,-87.012 -116.921,-131.904c13.196,-43.867 2.387,-27.446 51.641,-67.104c130.834,18.958 261.796,54.95 366.65,119.783m205.242,32.717c-47.446,-15.404 -95.975,-25.758 -145.379,-30.225c5.337,-37.088 10.125,-73.521 14.379,-109.4c119.063,15.85 236.638,34.204 350.254,56.412c-5.829,15.1 -12.037,30.163 -18.621,45.159c-67.154,11.166 -134.133,23.866 -200.633,38.054m158.483,104.483c22.95,14.034 45.542,29.234 67.655,45.488c-3.975,46.637 -9.605,92.675 -17.071,137.775c-39.025,-25.467 -84.504,-44.692 -135.875,-56.479l85.291,-126.784Zm-119.991,-60.962c26.491,10.708 52.571,23.05 78.196,36.879c-45.034,8.892 -91.009,19.154 -137.963,30.887c-14.308,-24.054 -30.692,-46.429 -48.942,-67.241c73.213,-17.084 59.309,-20.525 108.709,-0.525m110.008,22.833c-32.371,-18.454 -65.412,-34.646 -99.187,-48.346c45.645,-9.233 91.504,-17.796 137.429,-25.629c-11.784,24.917 -24.55,49.629 -38.242,73.975m80.088,51.233c-11.405,-8.091 -22.9,-15.875 -34.467,-23.416l36.142,-5.804l-1.675,29.22Zm548.704,935.075c4.533,27.705 7.712,54.625 9.4,80.7c-11.546,-5.337 -23.459,-10.312 -35.621,-15.025c7.537,-22.287 16.267,-44.237 26.221,-65.675m-361.034,-727.045c51.396,58.125 98.65,121.12 140.967,186.65c-69.112,-2.109 -135.408,-8.234 -198.983,-17.792c-20.129,-75.504 -62.254,-140.717 -124.042,-188.85c7.683,-44.425 13.679,-89.838 18,-135.863c58.2,45.617 113.142,98.309 164.058,155.855m174.18,187.408c-89.092,-141.554 -203.025,-275.779 -335.471,-376.071c1.333,-17.462 2.412,-35.012 3.254,-52.629c80.921,-11.338 158.279,-17.854 232.258,-19.975c-3.266,192.992 42.121,341.287 119.404,448.746l-19.445,-0.071Zm198.641,459.312c-19.471,-81.379 -49.125,-166.916 -87.491,-252.258c80.112,38.317 146.279,78.179 199.758,118.921c-44.946,40.183 -82.129,85.054 -112.267,133.337m26.084,174.984c-2.005,-42.688 -7.796,-87.925 -17.234,-134.838c31.892,-56.996 73.509,-109.579 125.938,-155.637c191.783,157.454 212.541,337.808 85.621,504.808c-32.23,-94.462 -100.838,-165.083 -194.325,-214.333m-36.742,126.579c-11.704,45.729 -34.329,83.617 -64.842,114.808l29.171,-243.879c15.7,6.138 30.825,12.804 45.388,19.925l-9.717,109.146Zm-63.029,151.267c77.296,-67.217 100.458,-147.05 100.521,-245.692c85.537,48.675 146.65,117.296 172.566,208.167c-62.508,72.454 -149.896,136.929 -250.479,188.087c-11.329,-49.621 -19.029,-100.092 -22.608,-150.562m-263.817,79.787c-72.504,11.704 -148.654,14.213 -220.025,10.688c-12.371,-49.209 -26.396,-97.875 -41.912,-145.846c76.733,10.987 164.07,53.404 261.937,135.158m60.071,16.329c63.854,-15.137 126.037,-38.887 177.637,-75.604c4.33,47.908 12.188,95.658 23.217,142.583l-118.517,48.25c-15.216,-37.745 -42.179,-76.316 -82.337,-115.229m-273.175,22.4c78.167,3.317 161.683,-0.454 240.117,-15.375c44.016,39.775 72.695,79.021 88.025,117.234c-96.409,30.429 -197.892,48.55 -296.875,50.954c-8.755,-51.246 -19.18,-102.292 -31.267,-152.813m-211,-56.879c-32.908,-8.458 -55.029,-20.233 -67.846,-35c54.929,-56.1 121.275,-87.683 199.967,-84.7c15.95,48.2 30.262,97.208 42.962,146.738l-175.083,-27.038Zm-87.35,-13.45c47.546,48.796 191.096,62.813 269.471,68.746c12.416,51.117 23.112,102.717 32.104,154.637c-132.829,-0.804 -266.5,-30.887 -374.271,-107.304c20.992,-44.35 45.25,-83.466 72.696,-116.079m176.187,-297.308c27.163,-26.379 56.721,-53.834 88.021,-82.167l27.104,-2.492c181.08,-15.075 351.184,-2.312 485.284,43.867c-26.342,89.242 -35.071,183.246 -29.859,277.446c-55.691,44.408 -127.954,70.637 -200.229,85.733c-114.696,-99.854 -217.096,-148.775 -306.679,-157.808c-19.062,-56.008 -40.275,-111 -63.642,-164.579m-167.779,218.721c13.271,-51.934 68.2,-119.709 146.659,-197.905c19.929,46.455 38.237,93.93 54.966,142.288c-78.854,-0.2 -146.904,31.537 -203.329,86.425c-1.712,-9.525 -1.067,-19.763 1.704,-30.808m134.809,-224.909c-86.725,85.871 -192.825,202.175 -159.284,279.8c-29.996,34.454 -56.391,75.854 -79.187,122.846c-57.004,-45.608 -104.809,-104.917 -139.471,-179.671c50.587,-25.108 98.021,-51.162 142.396,-78c96.658,99.225 124.116,-78.166 130.108,-87.096c34.521,-25.641 66.496,-51.733 96.208,-78.133l9.23,20.254Zm74.445,-70.837c-18.537,17.091 -36.354,33.846 -53.362,50.266l-8.825,-19.137c35.392,-32.933 17.133,-25.188 62.187,-31.129m520.296,-428.971c14.963,-14.413 29.679,-28.85 44.109,-43.271c95.162,69.75 212.116,104.475 336.92,107.433c-51.729,25.146 -97.37,54.484 -137.375,87.35c-62.183,-47.891 -140.641,-94.487 -237.504,-138.837l-6.15,-12.675Zm-304.179,274.121c91.467,-79.746 187.238,-163.271 276.342,-247.579l12.904,5.754c49.083,103.508 85.217,207.837 105.687,305.046c-17.537,32.595 -32.041,66.545 -43.837,101.47c-135.675,-46.445 -305.554,-60.02 -486.388,-45.837c42.963,-38.338 88.58,-78.092 135.292,-118.854m248.692,-259.45l-429.917,382.458l-38.329,4.346c129.996,-139.092 219.354,-307.571 217.462,-475.258c93.95,28.029 177.305,57.67 250.784,88.454m21.796,-20.65l-0.684,0.671c-79.391,-34.021 -170.141,-66.584 -273.154,-97.205c-1.129,-14.97 -3.087,-29.654 -5.754,-44.016c67.121,9.675 137.162,15.454 210.287,16.991c25.034,40.538 48.209,81.85 69.305,123.559m55.845,-54.367l-35.158,34.479c-17.762,-34.8 -36.996,-69.291 -57.454,-103.316l23.671,-0.013c21.108,25.55 44.187,48.463 68.941,68.85m72.796,-75.262c-17.121,18.491 -34.916,37.029 -53.191,55.545c-18.517,-15.033 -36.055,-31.645 -52.5,-49.791c34.57,-0.929 69.783,-2.859 105.691,-5.754m242.909,-355.046c-3.225,-22.667 -14.859,-40.017 -32.409,-52.679c20.079,6.287 39.713,13.058 58.929,20.258c0.167,18.517 1.446,36.667 3.871,54.317c-9.941,-7.442 -20.087,-14.705 -30.391,-21.896m736.87,686.946l191.742,64.12l-152.717,211.609c-11.045,-94.6 -24.1,-186.459 -39.025,-275.729m-42.9,-14.184l13.271,4.409c17.475,102.679 32.334,208.991 44.588,318.841l-21.604,29.9c4.754,-119.354 -6.984,-238.471 -36.255,-353.15m-93.712,-31.787l62.237,21.246c22.113,81.05 57.913,349.695 37.609,405.55c-115.05,160.175 -229.196,323.291 -328.892,483.829c-91.596,-22.284 -196.367,-31.442 -315.8,-24.088c-3.162,-11.166 -6.108,-22.633 -8.954,-34.366c93.483,-89.08 169.471,-204.913 221.121,-351.525c131.037,-140.071 244.296,-306.159 332.679,-500.646m-262.283,-95.771c74.829,28.971 153.67,57.925 235.791,86.6c-77.641,170.017 -174.462,317.971 -285.691,445.554c39.041,-136.029 68.745,-360.562 49.9,-532.154m-54.65,-21.454l25.425,10.058c4.37,33.721 6.72,68.796 6.8,105.283c0.429,191.392 -25.517,352.859 -72.305,487.709c-70.345,74.779 -145.833,141.946 -225.32,201.958l-14.967,-113.937c147.425,-179.867 134.408,-381.275 -74.508,-554.596c53.008,-42.634 116.116,-79.046 190.4,-107.4c54.291,-4.134 109.483,-13.9 164.475,-29.075m-402.03,-182.284c92.85,49.584 204.13,101.046 329.555,152.9c-35.18,8.95 -68.38,19.417 -99.709,31.225c-142.816,9.784 -278.45,-21.208 -385.154,-98.079c95.971,-97.612 41.958,-70.375 155.308,-86.046m-50.37,-27.787l9.045,5.129l-14.925,1.717l5.88,-6.846Zm-222.463,-168.363c36.371,46.967 104.596,99.138 198.171,154.317l-21.908,25.088c-53.571,5.054 -105.655,7.895 -156.342,8.72c-81.275,-104.104 -129.663,-252.312 -126.121,-449.112c91.046,-1.254 176.771,4.321 257.217,16.004c18.525,8.092 36.812,16.421 54.658,25.046c-113.45,16.825 -294.767,104.942 -205.675,219.937m215.9,133.35c-124.817,-73.266 -284.142,-171.729 -167.021,-262.537c47.613,-36.867 169.242,-75.246 203.492,-67.104c39.258,20.766 76.583,42.925 111.675,66.65c0.15,65.254 -92.317,195.746 -148.146,262.991m60.921,34.188c-12.613,-6.783 -24.871,-13.513 -36.717,-20.233c60.946,-73.925 137.479,-185.913 150.371,-258.534c13.508,9.767 26.592,19.825 39.329,30.104c17.759,73.025 54.738,138.213 105.438,197.596c-89.575,22.479 -175.717,39.359 -258.421,51.067m371.829,170.929c-124.917,-50.521 -236.308,-100.687 -330.35,-149.096c76.438,-12.104 155.725,-28.537 237.783,-49.596c109.459,116.842 105.713,53.696 134.392,190.884c-14.229,2.358 -28.146,4.975 -41.825,7.808m328.021,122.775c-87.775,-30.583 -171.746,-61.408 -251.058,-92.254l-0.95,-5.796c118.591,-39.783 94.462,-17.179 263.525,71.238l-11.517,26.812Zm68.096,23.342l-41.684,-14.188l9.959,-23.037l31.725,37.225Zm48.629,16.358l-16.525,-5.512l-5.371,-18.109l19.504,9.879l2.392,13.742Zm69.95,22.958l-40.183,-13.116l-1.388,-7.938l41.571,21.054Zm175.846,55.209l-223.488,-110.425c-7.425,-40.921 -15.25,-81.271 -23.516,-121.071c111.354,9.642 233.629,29.008 367.425,59.287c-38.292,56.167 -78.705,113.663 -120.421,172.209m903.683,261.379c60.183,12.762 120.304,24.942 180.196,36.5l25.121,126.783c-129.579,236.146 -268.363,431.221 -414.996,590.338l-88.913,-61.659c133.809,-219.079 235.813,-452.362 298.592,-691.962m-105.987,-22.996l78.895,17.229c-62.012,236.704 -163.654,468.442 -296.075,684.95c-8.47,-4.175 -17.195,-8.204 -26.125,-12.112c91.85,-137.354 157.205,-273.475 186.805,-401.842c14.362,-62.333 20.433,-122.85 17.183,-180.762c14.162,-36.613 27.279,-72.463 39.317,-107.463m-61.288,-13.871l34.075,7.771c-6.033,17.55 -12.433,35.367 -19.012,53.338c-3.709,-20.763 -8.675,-41.134 -15.063,-61.109m-503.337,-127.804c153.466,42.817 311.304,83.229 470.162,120.133c14.863,40.184 23.588,82.259 26.658,125.884c-22.616,58.125 -47.937,118.208 -76.175,180.4c-22.629,49.987 -83.079,123.891 -167.966,204.675c1.304,-113.613 -24.763,-237.425 -83.096,-371.884c-34.863,-80.262 -100.575,-149.87 -184.675,-213.562l15.092,-45.646Zm-135.471,-38.667c35.975,10.475 72.212,20.892 108.7,31.18l-11.788,35.912c-30.671,-22.008 -63.425,-43.321 -97.804,-64.133l0.892,-2.959Zm-18.379,-34.304l-51.284,-15.266c31.546,-44.284 62.254,-87.996 91.925,-131.013c-12.371,47.458 -25.833,96.188 -40.641,146.279m135.512,39.088c-36.683,-10.288 -73.117,-20.763 -109.237,-31.329c19.875,-67.35 37.479,-132.217 52.958,-194.842c39.575,9.717 76.808,20.371 111.85,31.937c-16.75,65.18 -35.304,130 -55.571,194.234m475.446,122.558c-151.621,-35.525 -302.146,-74.183 -448.713,-115.087c20.088,-63.742 38.48,-128.042 55.18,-192.746c208.879,73.696 334.491,180.283 393.533,307.833m89.258,20.483l-54.233,-12.366c-57.683,-143.296 -191.375,-262.575 -421.713,-343.017c32.984,-132.183 58.625,-265.875 76.4,-399.733c34.496,-71.196 60.25,-137.884 74.817,-199.05c176.813,187.479 315.242,370.179 419.267,546.608c-13.763,121.875 -44.388,257.358 -94.538,407.558m104.054,22.888l-76.837,-16.767c45.287,-136.041 74.762,-260.271 90.475,-373.571c14.362,25.488 27.95,50.867 40.917,76.075c-10.163,104.917 -28.534,209.942 -54.555,314.263m192.85,39.458l-165.791,-33.679c22.7,-91.033 39.575,-182.562 50.396,-274.129l115.395,307.808Zm18.705,-36.321c-30.038,-104.675 -72.671,-212.358 -128.7,-322.616c12.925,-139.071 11.616,-277.879 -5.071,-414.8c261.404,192.446 389.421,441.158 251.679,727.875c-26.292,54.675 -53.775,108.941 -82.363,162.433c-10.758,-52.146 -20.866,-101.737 -35.545,-152.892m-3544.19,2160.16c464.967,69.354 919.55,26.521 1326.94,-99.584c81.104,-10.841 48.679,-17.816 106.383,-1.204c-173.329,90.275 -365.2,154.104 -562.317,207.975c-296.837,81.1 -596.254,71.009 -871.008,-107.187m3687.04,-2157.76c147.97,-308.154 3.82,-575.958 -281.609,-777.57c-37.162,-259.909 -129.441,-506.696 -279.696,-732.455c328.296,-523.875 -59.12,-1039.89 -708.545,-1131.88c47.57,-288.558 -45.888,-472.379 -229.467,-571.721c-181.046,-98.021 -450.113,-112.141 -757.35,-62.633c-297.108,-91.913 -646.138,-139.258 -1052.44,-130.633c-68.633,1.445 -137.15,7.045 -205.262,16.445c-343.254,47.396 -683.6,191.884 -995.263,396.75c-266.179,33.246 -489.595,112.025 -636.525,216.825c-250.316,178.55 -430.416,403.305 -548.487,656.517c-96.85,207.671 -151.867,434.504 -169.671,670.688c-22.254,30.925 -43.804,62.087 -64.617,93.495c-273.004,411.988 -451.6,919.417 -356.604,1391.02c32.942,158.459 97.509,307.496 197.75,441.238c92.584,342.583 302.492,649.404 684.684,879.529c33.437,20.129 68.237,39.658 104.379,58.612c52.825,51.917 112.971,103.517 181.016,154.634c60.884,119.304 141.53,232.104 259.93,331.854c259.983,219.05 806.504,402.258 1551.78,552l-0,-26.829c-736.338,-148.059 -1276.15,-329.125 -1533.91,-546.292c-98.145,-82.717 -169.85,-174.958 -225.791,-272.85c104.454,73.825 225.729,146.558 365.287,217.783c105.079,53.642 209.904,100.846 314.288,142.021c150.954,179.034 341.466,234.709 550.379,209.488c33.962,-4.125 68.404,-10.438 103.217,-18.696c615.3,449.217 1492.03,-91.25 1517.19,-89.317l15.455,4.213c257.495,66.566 615.8,-58.442 616.637,-58.479c339.346,83.554 698.425,-101.196 929.671,-360.863c124.192,-139.408 211.746,-300.696 239.762,-453.792c66.28,-73.054 123.571,-151.07 170.813,-233.683c129.137,-225.592 183.567,-484.987 142.887,-769.925c35.192,-64.529 67.567,-129.654 100.105,-195.492" style="fill:#1a1a1a;"/></g></svg>